<svg xmlns="http://www.w3.org/2000/svg" xmlns:xlink="http://www.w3.org/1999/xlink"
    xmlns:serif="http://www.serif.com/" viewBox="0 0 512 640" version="1.1" xml:space="preserve"
    style="" x="0px" y="0px" fill-rule="evenodd" clip-rule="evenodd" stroke-linejoin="round"
    stroke-miterlimit="2"><g transform="matrix(1,0,0,1,-1124,0)"><g><path d="M1401,469L1401,496L1359,496L1359,469L1401,469ZM1364.88,394.655L1339.5,358C1352.26,352.786 1366.22,350.5 1380,350.5C1393.78,350.5 1407.74,352.786 1420.5,358L1395.12,394.655L1395.16,394.684C1412.73,407.105 1411.17,430.18 1401,449.272L1401,459L1359,459L1359,449.272C1348.83,430.18 1347.27,407.105 1364.84,394.684L1364.88,394.655ZM1370.57,402.877C1356.92,412.569 1360.18,430.832 1368.37,445.571C1368.8,446.342 1369,447.177 1369,448L1391,448C1391,447.177 1391.2,446.342 1391.63,445.571C1399.82,430.832 1403.08,412.569 1389.43,402.877L1380,416.5L1370.57,402.877ZM1484.96,45.06C1548.06,136.754 1504.01,252.977 1422.72,352.425L1422.77,352.446C1423.91,352.912 1424.87,353.711 1425.52,354.721C1521.94,289.898 1593.41,132.487 1507.5,62.5C1502.34,53.748 1494.82,47.935 1484.96,45.06ZM1275.04,45.06C1265.18,47.935 1257.66,53.748 1252.5,62.5C1166.59,132.487 1238.06,289.898 1334.48,354.721C1335.13,353.711 1336.09,352.912 1337.23,352.446L1337.28,352.425C1255.99,252.979 1211.93,136.753 1275.04,45.06ZM1315.86,30.267C1306.36,30.657 1297.81,34.265 1290.26,41.282C1218.75,131.707 1264.8,249.193 1347.36,348.937C1348.77,348.531 1350.18,348.154 1351.61,347.806C1288.07,226.028 1267.55,112.848 1315.86,30.267ZM1368.68,20.592C1339.55,104.41 1350.31,222.455 1376.66,344.543C1377.78,344.514 1378.89,344.5 1380,344.5C1381.11,344.5 1382.23,344.514 1383.34,344.543C1402.76,254.731 1413.66,170.825 1406.42,99.364C1406.14,96.618 1408.15,94.163 1410.89,93.886C1413.64,93.608 1416.09,95.611 1416.37,98.357C1423.66,170.338 1412.89,254.8 1393.43,345.209C1395,345.378 1396.58,345.578 1398.15,345.81C1422.61,299.398 1440.82,255.254 1451.16,213.884C1451.83,211.207 1454.55,209.576 1457.22,210.246C1459.9,210.915 1461.53,213.632 1460.86,216.309C1450.54,257.585 1432.56,301.591 1408.39,347.807C1409.82,348.154 1411.23,348.531 1412.64,348.937C1495.2,249.185 1541.26,131.685 1469.74,41.282C1462.18,34.256 1453.62,30.647 1444.1,30.265C1470.55,75.997 1476.49,134.711 1466.01,192.518C1465.52,195.233 1462.91,197.038 1460.2,196.546C1457.48,196.053 1455.68,193.449 1456.17,190.734C1466.69,132.671 1460.23,73.599 1431.62,28.982C1423.3,22.399 1413.63,19.476 1402.09,21.616C1406.72,37.2 1410.32,57.515 1412.94,72.888C1413.4,75.608 1411.57,78.193 1408.85,78.657C1406.13,79.121 1403.55,77.29 1403.08,74.569C1400.29,58.216 1396.42,36.085 1391.29,20.569C1388.17,18.487 1384.47,16.903 1380,16C1375.51,16.906 1371.81,18.498 1368.68,20.592ZM1328.38,28.989C1276.11,110.113 1297.46,223.495 1361.86,345.81C1363.42,345.578 1365,345.378 1366.58,345.209C1340.47,223.694 1330.1,106.209 1357.79,21.594C1346.3,19.496 1336.67,22.424 1328.38,28.989Z"/></g></g></svg>