<svg xmlns="http://www.w3.org/2000/svg" x="0" y="0" viewBox="0 0 128 160"><g><path d="M23.3,74.756a.25.25,0,0,0,.119.172.26.26,0,0,0,.127.034.227.227,0,0,0,.081-.014c1.745-.6,3.552-1.236,5.526-1.947a.25.25,0,0,0,.132-.36,7.688,7.688,0,0,1-.576-1.3.252.252,0,0,0-.264-.167,4.562,4.562,0,0,0-1.589.592,4.384,4.384,0,0,1-1.383.538,1.027,1.027,0,0,1-.794-.257,2.33,2.33,0,0,0-.71-.353.247.247,0,0,0-.229,0l-.119.062a15.358,15.358,0,0,0-1.892,1.125.251.251,0,0,0,.094.446A1.832,1.832,0,0,1,23.3,74.756Z"/><path d="M24.02,54.015c.367.723.683,1.51.988,2.27a18.891,18.891,0,0,0,1.7,3.518,59.707,59.707,0,0,1,4.371,8.269c.524,1.132,1.066,2.3,1.625,3.431a.25.25,0,0,0,.224.139.237.237,0,0,0,.083-.014c1.49-.529,3.249-1.148,5-1.733a.252.252,0,0,0,.158-.16.246.246,0,0,0-.033-.221,115.333,115.333,0,0,0-7.755-9.56l-.953-1.094a48.78,48.78,0,0,1-3.658-5c-.469-.7-.98-1.36-1.474-2-.192-.25-.384-.5-.573-.75a8.319,8.319,0,0,1-.533-.878.276.276,0,0,0-.3-.116.479.479,0,0,1-.075.017.251.251,0,0,0-.2.343c.172.421.326.85.481,1.28A19.4,19.4,0,0,0,24.02,54.015Z"/><path d="M17.657,62.7a5.245,5.245,0,0,1,.595.248,4.158,4.158,0,0,1,1.911,3.562,2.192,2.192,0,0,1-.186.67.25.25,0,0,0,.229.35.258.258,0,0,0,.077-.012,6.722,6.722,0,0,0,1.871-1.082c.2-.145.4-.293.617-.44h0c1.471-1.018,1.444-2.808,1.42-4.43a.249.249,0,0,0-.275-.245,7.077,7.077,0,0,0-1.368.31c-.091.029-.187.063-.284.1a2.19,2.19,0,0,1-.881.2,2.379,2.379,0,0,1-1.543-.713.254.254,0,0,0-.3-.039c-.232.131-.476.262-.723.394-.4.217-.818.438-1.213.678a.249.249,0,0,0,.05.45Z"/><path d="M26.446,71.342a5.65,5.65,0,0,1,1.732-.728.249.249,0,0,0,.189-.326c-.061-.177-.116-.348-.171-.518a.251.251,0,0,0-.32-.16,19.235,19.235,0,0,0-3.01,1.458.25.25,0,0,0-.014.428,1.063,1.063,0,0,0,.59.173A2.168,2.168,0,0,0,26.446,71.342Z"/><path d="M20.056,48.394a.234.234,0,0,0,.064-.008.407.407,0,0,1,.054-.012,1.278,1.278,0,0,0,.82-.382l.093-.076a1.9,1.9,0,0,1,.8-.43l-.029-.165.013-.009.07.181a.248.248,0,0,0,.244-.118.253.253,0,0,0-.006-.27c-.106-.156-.2-.323-.29-.49s-.173-.312-.269-.462a.246.246,0,0,0-.192-.112.255.255,0,0,0-.208.084,1.066,1.066,0,0,1-.108.114l-.113.1a2.443,2.443,0,0,0-.5.52c-.075.109-.153.205-.228.3a1.64,1.64,0,0,0-.466.995.25.25,0,0,0,.1.2A.257.257,0,0,0,20.056,48.394Z"/><path d="M24.011,59.718l-.088-.213a.251.251,0,0,0-.353-.121.274.274,0,0,1-.083.032,2.776,2.776,0,0,0-1.187.48,3.224,3.224,0,0,1-.67.343c-.261.091-.59.227-.924.374a.252.252,0,0,0-.15.226.249.249,0,0,0,.143.229,1.53,1.53,0,0,0,.67.147A4.124,4.124,0,0,0,22.477,61l.2-.056a6.028,6.028,0,0,1,1.385-.269.251.251,0,0,0,.213-.354C24.18,60.125,24.1,59.922,24.011,59.718Z"/><path d="M20.944,73.915c-.681.193-.673.784-.668,1.215l0,.138c0,.181,0,.362.006.537a.248.248,0,0,0,.25.241.233.233,0,0,0,.093-.018c.408-.165.82-.324,1.26-.473h0c.232-.083.464-.166.7-.243A.252.252,0,0,0,22.748,75l-.024-.059a1.033,1.033,0,0,0-.457-.792A1.626,1.626,0,0,0,20.944,73.915Z"/><path d="M20.8,48.846a2.372,2.372,0,0,1-.242.09.25.25,0,0,0-.147.354,38.435,38.435,0,0,1,1.579,3.672l.234.6c.464,1.176.985,2.348,1.488,3.481.573,1.288,1.165,2.62,1.675,3.962.379,1,.8,2,1.214,2.958.5,1.179,1.023,2.4,1.459,3.632a33.214,33.214,0,0,0,1.413,3.51,2.774,2.774,0,0,1,.172.58,3.044,3.044,0,0,0,.268.825.247.247,0,0,0,.218.129.274.274,0,0,0,.084-.014l1.741-.618a.25.25,0,0,0,.148-.142.246.246,0,0,0-.008-.2l-1.016-2.045c-1.556-3.136-3.165-6.38-4.9-9.516a29.66,29.66,0,0,1-1.332-2.861,30.3,30.3,0,0,0-1.348-2.9,14.916,14.916,0,0,1-.957-2.321A11.316,11.316,0,0,0,21.1,48.926.247.247,0,0,0,20.8,48.846Z"/><path d="M90.541,39.354a1.37,1.37,0,0,0-.16-.054.249.249,0,0,0-.29.146c-.269.637-.575,1.281-.871,1.9-.378.8-.769,1.617-1.095,2.451a11.517,11.517,0,0,1-3.754,4.733,9.147,9.147,0,0,1-3.289,1.723c-.511.179-1.038.364-1.639.621-.094.045-.251.016-.335.122-.234.3-.467.566-.712.822a.248.248,0,0,0-.043.285.251.251,0,0,0,.223.138l.032,0,.168-.022a15.047,15.047,0,0,0,4.751-1.158,17.894,17.894,0,0,0,3.608-2.451c.316-.255.636-.513.966-.77a3.276,3.276,0,0,0,.58-1.666c.047-.231.086-.431.121-.546.169-.535.346-1.069.525-1.6l.153-.461c.131-.393.29-.8.451-1.213a13.5,13.5,0,0,0,.843-2.7.25.25,0,0,0-.167-.276Z"/><path d="M80.105,49.875a.252.252,0,0,0,.2.1.235.235,0,0,0,.064-.009l.13-.034a10.76,10.76,0,0,0,1.215-.375,13.652,13.652,0,0,0,3.518-2.544c1.589-1.431,2.623-3.722,3.467-5.758l.5-1.221q1.165-2.829,2.343-5.657a18.4,18.4,0,0,0,.65-1.944,16.306,16.306,0,0,1,.7-2.038.247.247,0,0,0-.032-.256.256.256,0,0,0-.241-.092l-.062.013a1.128,1.128,0,0,1-.114.019,1.23,1.23,0,0,0-.5.215,1.208,1.208,0,0,1-.228.123l-.351.111c-.468.148-.91.288-1.368.474a.25.25,0,0,0-.155.211.258.258,0,0,1-.031.116c-1.59,3.246-3.348,6.485-5.048,9.617-1.019,1.879-2.074,3.821-3.079,5.742l-.255.486c-.447.853-.87,1.658-1.338,2.42A.249.249,0,0,0,80.105,49.875Z"/><path d="M89.542,51.354a.5.5,0,0,1-.106.053,8.11,8.11,0,0,0-2.668,1.378c-.127.1-.274.2-.431.311a7.885,7.885,0,0,0-1.853,1.634.25.25,0,0,0,.2.4.183.183,0,0,0,.033,0c1.147-.153,2.291-.318,3.436-.483,2.4-.346,4.878-.7,7.337-.934a53.552,53.552,0,0,1,5.587-.122c1.605.02,3.267.042,4.9-.062l.046.01a.259.259,0,0,0,.214-.068c.19-.185.385-.364.587-.532a.253.253,0,0,0,.081-.257.247.247,0,0,0-.2-.181,56.515,56.515,0,0,0-9.158-.794c-.543,0-1.123.009-1.724.021a22.834,22.834,0,0,1-6.085-.4A.255.255,0,0,0,89.542,51.354Z"/><path d="M23.019,48.869a11.215,11.215,0,0,0,1.241,1.686,10.881,10.881,0,0,1,1.14,1.53A46.278,46.278,0,0,0,29.834,58.4c.875,1.052,1.758,2.08,2.637,3.1a98.336,98.336,0,0,1,6.343,7.919.247.247,0,0,0,.289.093c1.43-.508,2.891-1.086,4.343-1.719a.25.25,0,0,0,.019-.449,37.337,37.337,0,0,1-7.361-5.36.5.5,0,0,0,.2,0,3.827,3.827,0,0,1,.867-.07.5.5,0,0,0,0-1,5.014,5.014,0,0,0-1.133.106.437.437,0,0,0-.325.609c-.925-.86-1.866-1.791-2.833-2.806-.662-.7-1.352-1.34-2.019-1.965a28.629,28.629,0,0,1-3.186-3.317c-.288-.367-.571-.736-.854-1.1a38.645,38.645,0,0,0-3.752-4.405.257.257,0,0,0-.348,0,.25.25,0,0,0-.03.336A4.648,4.648,0,0,1,23.019,48.869Z"/><path d="M88.937,76.514c-3.105.065-6.245.019-9.28-.025-2.737-.04-5.569-.081-8.4-.041A62.738,62.738,0,0,1,60,75.928a.267.267,0,0,0-.069,0,37.916,37.916,0,0,0-11.4,3.118.25.25,0,0,0,.072.476c.4.049.778.1,1.148.154a22.873,22.873,0,0,0,3.381.3c.143,0,.288,0,.437-.006q3.845-.117,7.7-.256,12.312-.425,24.614-.89c4.192-.155,8.457-.343,12.582-.525,5.637-.248,11.466-.505,17.2-.681a.278.278,0,0,0,.176-.109.312.312,0,0,0,.06-.211c0-.007-.007-.064-.008-.07a.249.249,0,0,0-.24-.21c-2.339-.06-4.676-.136-7.014-.212C102.178,76.6,95.509,76.379,88.937,76.514Z"/><path d="M42.361,69.132a.25.25,0,0,0,.24.18l.037,0A47.822,47.822,0,0,0,48.556,67.9c.5-.14.981-.278,1.458-.408l1.232-.342c2.754-.765,5.6-1.556,8.407-2.288a34.759,34.759,0,0,1,8.8-.987c.341,0,.672-.006,1-.012,2.15-.036,3.842-.067,5.377,1.621a.251.251,0,0,0,.325.039l.393-.265a15.924,15.924,0,0,0,3.451-2.812c.306-.365.6-.735.893-1.11l.052-.064a.255.255,0,0,0-.06-.362c-1.506-1.653-5.258-1.083-8-.666-.629.1-1.172.178-1.595.218A37.008,37.008,0,0,0,62.1,62.536c-2.411.825-4.924,1.451-7.354,2.057-2.206.55-4.487,1.118-6.686,1.835a.223.223,0,0,1-.188-.012.246.246,0,0,0-.227,0c-1.822.89-3.506,1.682-5.148,2.421A.25.25,0,0,0,42.361,69.132Z"/><path d="M75.36,48.5a14.365,14.365,0,0,1,1.768,3.146.25.25,0,0,0,.136.183.241.241,0,0,0,.111.026.249.249,0,0,0,.151-.052,6.335,6.335,0,0,0,.984-.919,12.007,12.007,0,0,0,1.272-1.823.25.25,0,0,0-.042-.3,6.732,6.732,0,0,0-1.1-.808l-.065-.041a7.632,7.632,0,0,1-.737-.551,7.54,7.54,0,0,0-.869-.636c-.094-.058-.2-.113-.3-.168a2.006,2.006,0,0,1-.686-.488,4.059,4.059,0,0,0-2.006-1.542.5.5,0,0,1-.089-.055.223.223,0,0,0-.24-.019.328.328,0,0,0-.1.062.251.251,0,0,0-.055.269A16.749,16.749,0,0,0,75.36,48.5Z"/><path d="M74.679,44.169a6.711,6.711,0,0,1,1.384,1.055,8.8,8.8,0,0,0,1.2.964c.3.189.584.412.86.627a10.2,10.2,0,0,0,.975.7,6.455,6.455,0,0,1,.851.6.254.254,0,0,0,.161.059.272.272,0,0,0,.049-.005.252.252,0,0,0,.173-.13c.185-.36.359-.725.528-1.089a.25.25,0,0,0-.095-.317c-.357-.223-.707-.452-1.056-.68a26.28,26.28,0,0,0-2.46-1.483c-.112-.057-.248-.142-.4-.237-.654-.407-1.55-.966-2.2-.488a.25.25,0,0,0,.032.424Z"/><path d="M52.961,64.334a.248.248,0,0,0,.066-.008c1.538-.421,3.084-.821,4.63-1.221,2.5-.647,5.092-1.316,7.611-2.068A35.1,35.1,0,0,1,74.4,59.479c.338-.011.693-.035,1.055-.06,1.709-.115,3.642-.249,4.809,1.009a.214.214,0,0,0,.188.08.247.247,0,0,0,.185-.087,11.25,11.25,0,0,1,.849-.9,16.527,16.527,0,0,0,1.67-1.94c.352-.454.716-.923,1.092-1.339a.251.251,0,0,0,.037-.281.244.244,0,0,0-.248-.135l-.346.039c-.137.017-.183-.036-.208-.077a.391.391,0,0,1,.038-.4.248.248,0,0,0,.043-.108c0-.014,0-.067,0-.08a5.519,5.519,0,0,1,2.191-2.411l.2-.15a10.67,10.67,0,0,1,2.953-1.713.253.253,0,0,0,.151-.141.26.26,0,0,1,.067-.1,4.728,4.728,0,0,0,1.079-1.559c.04-.082.1-.223-.357-.846-.165-.21-.762-.188-.9-.108a.236.236,0,0,1-.186.024.25.25,0,0,0-.21.045c-.43.329-.834.659-1.231.984a14.265,14.265,0,0,1-4.171,2.65,19.41,19.41,0,0,1-4.075.885c-.75.107-1.526.218-2.3.379a.24.24,0,0,0-.069.026,14.477,14.477,0,0,1-3.345,1.157,21.723,21.723,0,0,0-2.3.688c-1.821.869-3.658,1.786-5.435,2.672-2.43,1.213-4.944,2.467-7.447,3.616-1.7.782-3.36,1.588-5.333,2.555a.25.25,0,0,0,.11.474Z"/><path d="M70.391,81.849c-.107,0-.214.011-.312.021-1.312.088-2.624.3-3.893.5-.452.074-.9.147-1.355.215a.248.248,0,0,0-.19.142l-.036.073c-.025.051-.05.1-.067.144-.075.174-.139.353-.2.523-.052.151-.1.306-.138.456a.251.251,0,0,0,.05.228.244.244,0,0,0,.217.086,22.916,22.916,0,0,1,2.553-.138c.019-.011.061,0,.09-.016a.367.367,0,0,1,.284.005.278.278,0,0,1,.145.177c.134.415.294.8.45,1.176l.052.128a.248.248,0,0,0,.163.145.26.26,0,0,0,.068.01.253.253,0,0,0,.145-.047,6.592,6.592,0,0,0,1.325-1.662,9.634,9.634,0,0,0,.919-1.839.257.257,0,0,0-.048-.233A.284.284,0,0,0,70.391,81.849Z"/><path d="M84.827,86.294a.254.254,0,0,0-.3.061,2.276,2.276,0,0,0-.545,1.4,4.744,4.744,0,0,0,1.959,3.2,1.486,1.486,0,0,0,.713.2,1.236,1.236,0,0,0,.651-.188.325.325,0,0,0,.121-.207.251.251,0,0,0-.169-.356,2.8,2.8,0,0,1-1.908-1.18,4.5,4.5,0,0,1-.388-2.651A.25.25,0,0,0,84.827,86.294Z"/><path d="M60.807,86.13l-.079.054a.25.25,0,0,0,.009.419,3.029,3.029,0,0,1,.581.539c.093.1.192.208.3.32a4.583,4.583,0,0,1,1.372,2.456.223.223,0,0,0,.018.057l0,.019h0a.619.619,0,0,0,.023.112,4.29,4.29,0,0,1-.09.773.251.251,0,0,0,.245.3.255.255,0,0,0,.086-.015A9.6,9.6,0,0,0,66.7,89.186l.256-.238c.72-.661,1.241-1.138.833-2.433a11.265,11.265,0,0,0-.431-1.086c-.081-.184-.162-.368-.237-.555a.25.25,0,0,0-.232-.157A13.866,13.866,0,0,0,62.1,85.4,5.767,5.767,0,0,0,60.807,86.13Z"/><path d="M85.691,86.272a3.473,3.473,0,0,0,.172,2.621,2.722,2.722,0,0,0,1.912.978l.017.005a.249.249,0,0,0,.323-.2,2.345,2.345,0,0,0-.1-1.1,3.148,3.148,0,0,1-.085-.451,2.139,2.139,0,0,0-.27-.922A3.51,3.51,0,0,0,86.04,86a.251.251,0,0,0-.211.024.256.256,0,0,0-.116.179A.236.236,0,0,1,85.691,86.272Z"/><path d="M85.777,85.184a.249.249,0,0,0,.19.172,4.519,4.519,0,0,1,2.054,1.307,4.049,4.049,0,0,1,.645,2.173c.021.2.032.382.037.549a.25.25,0,0,0,.25.242.249.249,0,0,0,.1-.021,1.445,1.445,0,0,0,.169-.093A14.186,14.186,0,0,0,90.951,88.2c.232-.2.463-.391.7-.581.3-.241.515-.395.784-.586l.154-.11a1.331,1.331,0,0,0,.49-1.59,2.823,2.823,0,0,1-.073-.51,3.266,3.266,0,0,0-.132-.87.4.4,0,0,0-.031-.07.287.287,0,0,1-.029-.059.978.978,0,0,0-.045-.168c0-.01-.022-.067-.026-.076a2.107,2.107,0,0,0-1.631-1.132c-1.683-.061-4.211,1.413-5.274,2.488A.247.247,0,0,0,85.777,85.184Z"/><path d="M122.522,78.055c-8.184.146-16.508.514-24.558.871-4.152.183-8.444.373-12.663.53q-12.219.45-24.451.884l-2.059.07c-1.814.061-3.627.123-5.441.175a21.344,21.344,0,0,1-3.7-.309c-.773-.109-1.572-.222-2.405-.285a.277.277,0,0,1-.173-.079.251.251,0,0,0-.285-.039c-1.107.57-2.178,1.182-3.184,1.818a.252.252,0,0,0-.111.262.249.249,0,0,0,.2.2,21.55,21.55,0,0,0,3.492.242c1.042,0,2.1-.043,3.14-.086.988-.041,1.922-.08,2.807-.08,1.021,0,2.077.032,3.1.064,1.724.053,3.506.108,5.242.013a.27.27,0,0,0,.075-.015.387.387,0,0,1,.231-.012.2.2,0,0,0,.069,0c.481-.03.915-.071,1.327-.124,2-.247,3.988-.468,5.979-.69q1.452-.162,2.905-.327c1.544-.173,3.133-.219,4.67-.264a49.094,49.094,0,0,0,5.487-.365,45.3,45.3,0,0,1,7.734-.213l.321.009c3.143.09,6.311-.118,9.374-.319q1.066-.07,2.138-.137c3.3-.2,6.631-.194,9.863-.19h1.449c1.838,0,3.673-.183,5.448-.36,1.132-.113,2.3-.229,3.459-.3a.255.255,0,0,0,.133-.047.309.309,0,0,1,.125-.049c.244-.035.414-.214.508-.533a.252.252,0,0,0-.042-.222A.22.22,0,0,0,122.522,78.055Z"/><path d="M94.893,81.074a.252.252,0,0,0-.076-.179.237.237,0,0,0-.181-.071c-1.417.037-2.832.055-4.248.072l-2.1.028a.273.273,0,0,0-.246.276,7.088,7.088,0,0,0-.118,1.184.25.25,0,0,0,.5.016c0-.029,0-.108.145-.2A6.138,6.138,0,0,1,91.757,82a1.977,1.977,0,0,1,1.483,1.136.246.246,0,0,0,.176.143.233.233,0,0,0,.053.006.249.249,0,0,0,.166-.063,3.471,3.471,0,0,1,.31-.248,1.551,1.551,0,0,1,.186-.1,1.03,1.03,0,0,0,.524-.439,1.834,1.834,0,0,0,.24-1.279Z"/><path d="M61.216,82.915c-.16.006-.32.006-.487.006a.247.247,0,0,0-.248.171.252.252,0,0,0,.088.279.687.687,0,0,1,.15.133.251.251,0,0,0,.133.221.25.25,0,0,0,.257-.014.77.77,0,0,0,.362-.5A.252.252,0,0,0,61.415,83,.274.274,0,0,0,61.216,82.915Z"/><path d="M60.459,89.778a2.364,2.364,0,0,0,1.593,1.2.222.222,0,0,0,.057.007.248.248,0,0,0,.246-.206,5.126,5.126,0,0,0,.065-.6.241.241,0,0,0-.005-.065,5.233,5.233,0,0,0-1.447-2.461.253.253,0,0,0-.185-.074.279.279,0,0,0-.191.082C60.005,87.988,60.415,89.671,60.459,89.778Z"/><path d="M59.12,83.616l-.495-.012a.294.294,0,0,0-.239.154,1.5,1.5,0,0,0-.086.351c-.007.042-.013.083-.022.12a.994.994,0,0,1-.053.162.969.969,0,0,0-.085.465.383.383,0,0,0,.314.314.255.255,0,0,0,.151-.008.575.575,0,0,1,.279.036.256.256,0,0,0,.073.015,10,10,0,0,0,.179,1.1c.144.627,1.108.362.964-.266a8.29,8.29,0,0,1-.192-1.3.512.512,0,0,0-.546-.478v-.406A.25.25,0,0,0,59.12,83.616Z"/><path d="M56.826,84.471a.26.26,0,0,0,.056.006.25.25,0,0,0,.244-.2,3.567,3.567,0,0,1,.2-.576,4.324,4.324,0,0,0,.2-.573l0-.005a.269.269,0,0,0-.171-.3A1.77,1.77,0,0,0,56,83.575a.518.518,0,0,0,.281.7A2.127,2.127,0,0,0,56.826,84.471Z"/><path d="M9.023,94.783l.4.107a14.828,14.828,0,0,0,3.893.488,22.435,22.435,0,0,0,5.321-.692c.456-.115.924-.224,1.4-.335A20.883,20.883,0,0,0,26.22,92.21c.762-.466,1.519-.942,2.277-1.419,3.461-2.178,7.04-4.431,11.089-5.561,1.975-.548,4.582-1.247,7.23-1.792a.25.25,0,0,0-.05-.5h0a17.12,17.12,0,0,1-4.213-.393.251.251,0,0,1-.185-.139.363.363,0,0,1,.034-.306.249.249,0,0,0,.03-.167.28.28,0,0,1,.137-.3,38.621,38.621,0,0,1,16.958-6.272.241.241,0,0,0,.1-.037.3.3,0,0,1,.24-.032l.087.013a.236.236,0,0,0,.065,0l.273-.034a.251.251,0,0,0,.151-.077,21.249,21.249,0,0,1,6.562-4.417h0a44.922,44.922,0,0,0,6.941-4.42l.27-.195a.249.249,0,0,0,.027-.382c-1.963-1.9-5.465-1.513-8.277-1.2-.642.071-1.251.14-1.8.176A29.138,29.138,0,0,0,56.182,66.5a42.2,42.2,0,0,1-5.9,1.566c-1.318.283-2.68.575-3.971.94a21.7,21.7,0,0,1-6.751,1.115.252.252,0,0,0-.1.017c-3.044,1.2-6.256,2.178-9.362,3.124-1.037.316-2.071.631-3.1.952a42.984,42.984,0,0,0-8.378,3.563c-.4.228-.815.445-1.224.661-1.806.955-3.674,1.942-4.871,3.827-.17.265-.366.539-.6.837a.25.25,0,0,0,.12.392,1.992,1.992,0,0,0,.628.123H13c.218,0,.438,0,.651,0a4.748,4.748,0,0,0,1.44-.276c.222-.068.447-.138.69-.192a.288.288,0,0,1,.291.082.374.374,0,0,1,.087.343.229.229,0,0,1-.189.156c-.271.061-.525.136-.774.209a5.308,5.308,0,0,1-1.545.291h-.315c-.319,0-.642,0-.964-.006a1.122,1.122,0,0,1-.308-.086,1.271,1.271,0,0,0-.511-.114.316.316,0,0,1-.149-.029.25.25,0,0,0-.295.053c-.515.555-1.078,1.1-1.623,1.619a29.477,29.477,0,0,0-2.239,2.317l-.047.057c-.882,1.057-2.359,2.828-2.069,4.326A2.1,2.1,0,0,0,6.3,93.812,11.867,11.867,0,0,0,9.023,94.783Z"/><path d="M18.224,63.87a.251.251,0,0,0-.182.194,4.894,4.894,0,0,0-.12,1.538c.067.544.834.914,1.277,1.046a.225.225,0,0,0,.072.011.25.25,0,0,0,.25-.261,4.642,4.642,0,0,0-1.043-2.447A.251.251,0,0,0,18.224,63.87Z"/><path d="M59.725,89.439a3.177,3.177,0,0,1,.283-2.035A.25.25,0,0,0,60,87.117a.254.254,0,0,0-.272-.094,1.629,1.629,0,0,0-1.021.962,4.041,4.041,0,0,0-.193,1.223c.013,1.149,1.273,2.212,2.168,2.6a1.69,1.69,0,0,0,.313.1.263.263,0,0,0,.049,0,.257.257,0,0,0,.086-.016l.068-.023c.038-.013.075-.026.112-.041a.25.25,0,0,0,.01-.459A2.743,2.743,0,0,1,59.725,89.439Z"/><path d="M18.021,67.68h0a2.349,2.349,0,0,0,.325.024,1.581,1.581,0,0,0,.473-.066.25.25,0,0,0,.011-.474,2.685,2.685,0,0,1-1.386-1.038,1.589,1.589,0,0,1-.109-1c.01-.109.019-.216.024-.322a7.173,7.173,0,0,1,.157-1.227.251.251,0,0,0-.218-.3,1.069,1.069,0,0,0-.887.285,2.631,2.631,0,0,0-.513,1.927A2.67,2.67,0,0,0,18.021,67.68Z"/><path d="M14.639,95.988A5.388,5.388,0,0,0,14,97.068l-.072-.022c-1.224-.406-1.749,1.525-.531,1.928a2.172,2.172,0,0,0,.936.106,1.226,1.226,0,0,0,.721-.332.794.794,0,0,0,.075.123l.362.391c.877.945,2.288-.471,1.414-1.415l-.362-.39a.906.906,0,0,0-1.4.051,1.082,1.082,0,0,0-.153-.178,5.273,5.273,0,0,1,.515-.837C15.893,95.981,15.025,95.482,14.639,95.988Z"/><path d="M33.251,58.674l1.165-.1c.636-.056.642-1.057,0-1l-1.165.1C32.615,57.73,32.609,58.73,33.251,58.674Z"/></g></svg>