<svg xmlns="http://www.w3.org/2000/svg" viewBox="0 0 128 160" x="0px" y="0px">
    <g>
        <path
            d="M103.818,40.005a.38.38,0,0,0-.41-.24c-1.833.29-3.878.747-5.231,1.049-.571.128-1,.224-1.2.258-1.24.223-2.485.431-3.731.639-2.237.373-4.551.76-6.806,1.237-3.757.8-7.565,1.519-11.247,2.215-1.057.2-2.117.458-3.142.706s-2.1.508-3.144.7c-.3.055-.588.088-.877.12a8.143,8.143,0,0,0-1.324.224.376.376,0,0,0-.251.232.38.38,0,0,0,.042.34,2.179,2.179,0,0,1,.272.535.376.376,0,0,0,.355.253l.051,0c3.886-.53,7.784-1.358,11.553-2.157,3.132-.665,6.371-1.353,9.582-1.865,3.347-.533,6.678-1.279,9.9-2,1.867-.419,3.733-.836,5.61-1.216a.375.375,0,0,0,.231-.586A1.9,1.9,0,0,1,103.818,40.005Z" />
        <path
            d="M57.586,81.961a.376.376,0,0,0,.216.068.369.369,0,0,0,.127-.022l.231-.091.021-.007c.372-.159.752-.306,1.129-.452,2-.773,4.068-1.574,4.612-4.016.061-.275.14-.576.222-.886.378-1.445.77-2.938.036-3.7a1.9,1.9,0,0,0-1.885-.316c-1.578.349-3.133.654-4.577.932a.367.367,0,0,0-.291.452v7.732A.375.375,0,0,0,57.586,81.961Z" />
        <path
            d="M56.7,86.975a.374.374,0,0,0,.374.394.342.342,0,0,0,.071-.007,41.038,41.038,0,0,0,7.272-1.871.371.371,0,0,0,.234-.3c.372-2.644.652-4.972.81-7.742a.415.415,0,0,0-.144-.279.436.436,0,0,0-.688.22c-.355,2.08-.474,2.781-2.284,3.506-1.778.709-3.539,1.419-5.308,2.149a.373.373,0,0,0-.231.366,25.662,25.662,0,0,1-.065,2.84Z" />
        <path
            d="M65.305,48.264l.219.007a.341.341,0,0,0,.34-.2.376.376,0,0,0-.024-.393,2.648,2.648,0,0,0-.287-.33,1.612,1.612,0,0,0-.129-.106,5.993,5.993,0,0,0-3.647-1.063,6.83,6.83,0,0,0-2.93.882.376.376,0,0,0,.049.691l.089.031a5.106,5.106,0,0,1,.774.507,3.152,3.152,0,0,0,1.8.809,1.877,1.877,0,0,0,.777-.175h0a8.518,8.518,0,0,1,2.382-.653A3.224,3.224,0,0,1,65.305,48.264Z" />
        <path
            d="M104.8,40.4c.007.011.053.089.061.1l.046.076a.374.374,0,0,0,.318.176.353.353,0,0,0,.072-.008c.567-.112,1.14-.211,1.708-.31l.1-.017a.375.375,0,0,0,.131-.69,4.222,4.222,0,0,0-2.336-.159.374.374,0,0,0-.271.587l.07.1A1.749,1.749,0,0,1,104.8,40.4Z" />
        <path
            d="M119.85,30.681c.106-.733.212-1.467.33-2.2a.378.378,0,0,0-.112-.331.368.368,0,0,0-.336-.095c-.854.18-1.711.419-2.539.65l-.459.127a.378.378,0,0,0-.233.19,63.258,63.258,0,0,0-5.348,12.592,71.53,71.53,0,0,1-5.306,13.024.378.378,0,0,0-.106.318,5.011,5.011,0,0,1,.038.691.376.376,0,0,0,.293.366,30.794,30.794,0,0,1,4.3,1.442,22.042,22.042,0,0,0,3.992,1.292.419.419,0,0,0,.138.025.376.376,0,0,0,.322-.182,8.724,8.724,0,0,1,1.333-1.766,1.2,1.2,0,0,1,.215-.147.367.367,0,0,0,.161-.2.315.315,0,0,1,.088-.145c3.127-2.828,5.457-7.772,3.186-11.944h0c-.785-1.434-2.247-4.1-1.625-5.848A41.175,41.175,0,0,0,119.85,30.681Zm-2.606,22.384.341.157-.353-.133c-.79,1.619-1.773,3.633-3.216,4.053a2.507,2.507,0,0,1-2.052-.414c-2.191-1.351-2.055-6.916-1.06-9.187.08-.185.165-.39.255-.609.577-1.4,1.448-3.517,2.895-3.782a5.314,5.314,0,0,1,.961-.1,2.245,2.245,0,0,1,2.126,1.114A10.179,10.179,0,0,1,117.244,53.065Z" />
        <path
            d="M104.587,51.441a2.129,2.129,0,0,1,.4.778,3.2,3.2,0,0,1,.028.488c0,.2.007.4.025.553a.375.375,0,0,0,.31.325.331.331,0,0,0,.062.005.373.373,0,0,0,.337-.211,96.854,96.854,0,0,0,5.3-13.567,63.705,63.705,0,0,1,4.3-9.974.375.375,0,0,0-.423-.535c-.419.1-.844.185-1.253.25a.269.269,0,0,1-.1-.009.374.374,0,0,0-.418.219c-.3.684-.585,1.374-.873,2.065-.71,1.7-1.444,3.464-2.321,5.108a43.065,43.065,0,0,0-2.145,5.013c-.419,1.106-.851,2.249-1.339,3.347a21.133,21.133,0,0,0-.928,2.766,18.344,18.344,0,0,1-1.026,2.962A.377.377,0,0,0,104.587,51.441Z" />
        <path
            d="M116.813,47.648a1.972,1.972,0,0,1-.408.289h0a2.461,2.461,0,0,0-.781.556.376.376,0,0,0-.048.437,1.909,1.909,0,0,1,.2,1.024.493.493,0,0,0,.255.372.712.712,0,0,0,.359.113h.638a.374.374,0,0,0,.372-.33,11.628,11.628,0,0,0,.031-2.2.375.375,0,0,0-.62-.258Zm-.5,2.4v-.006h0Z" />
        <path
            d="M117.073,25.027a6.92,6.92,0,0,0-3.219,3.2.419.419,0,0,0-.054.2.374.374,0,0,0,.375.375.4.4,0,0,0,.077-.008c.575-.121,1.15-.263,1.726-.419a.377.377,0,0,0,.234-.19l1.369-2.653a.375.375,0,0,0-.508-.5Z" />
        <path
            d="M48.385,82.725a.376.376,0,0,0-.341.218l-.163.354c-.352.761-.715,1.548-1.012,2.346a.375.375,0,0,0,.352.5.35.35,0,0,0,.123-.021c2.077-.722,4.184-1.511,6.442-2.412a.375.375,0,0,0,.234-.3c.064-.538.113-1.168.163-1.834a.375.375,0,0,0-.557-.355,7.711,7.711,0,0,1-2.293.725A12.265,12.265,0,0,0,50,82.328a9,9,0,0,1-1.519.4C48.467,82.73,48.4,82.725,48.385,82.725Z" />
        <path
            d="M38.836,89.026a9.113,9.113,0,0,0-.959.33l0,0-.3.135a.375.375,0,0,0-.189.5c.047.1.093.2.156.311a.376.376,0,0,0,.475.157,8.816,8.816,0,0,1,1.782-.544.376.376,0,0,0,.2-.624A1.069,1.069,0,0,0,38.836,89.026Z" />
        <path
            d="M44.77,83.819h0a26.536,26.536,0,0,0,2.248-5.625c.325-1.031.631-2.005.987-2.923a11.482,11.482,0,0,1,2.626-4.405.376.376,0,0,0-.038-.573c-.155-.114-.329-.254-.505-.4-.286-.229-.576-.46-.8-.6l-.1-.1a.378.378,0,0,0-.317-.105L48,69.216a30.6,30.6,0,0,0-3.118.532c-.169.041-.4.111-.676.195a10.075,10.075,0,0,1-3.319.616.379.379,0,0,0-.332.146c-.838,1.1-1.711,2.173-2.555,3.211a54.283,54.283,0,0,0-5.735,8.014c-1.233,2.251-2.522,5.006-1.532,6.334a2,2,0,0,0,1.709.694,5.874,5.874,0,0,0,1.221-.145c.753-.162,1.538-.28,2.3-.395a28.051,28.051,0,0,0,3.159-.6C41.816,87.083,43.168,86.481,44.77,83.819Z" />
        <path
            d="M45.455,64.993a.251.251,0,0,1-.095.059c-.018.008-.067.038-.085.049a1.642,1.642,0,0,0-.187.133A33.409,33.409,0,0,0,41.1,69.107a.375.375,0,0,0,.276.629.4.4,0,0,0,.118-.019,54.32,54.32,0,0,1,6.429-1.1c.855-.115,1.474-.2,1.7-.246a30.81,30.81,0,0,0,5.427-1.824.377.377,0,0,0,.209-.466,7.256,7.256,0,0,1-.1-2.526c.028-.4.051-.761.04-1.026a.869.869,0,0,0-.492-.769c-1.848-.925-9.1,3.111-9.166,3.156A.41.41,0,0,0,45.455,64.993Z" />
        <path
            d="M54.479,74.592a.381.381,0,0,0-.135-.3.372.372,0,0,0-.318-.078L53.6,74.3c-.261.053-.523.107-.781.166-.865.188-1.69,1.113-2.522,2.826a.373.373,0,0,0,.337.539.357.357,0,0,0,.121-.02,16.493,16.493,0,0,1,3.125-.774l.112.013a.382.382,0,0,0,.289-.088.378.378,0,0,0,.13-.272C54.443,75.821,54.465,75.083,54.479,74.592Z" />
        <path
            d="M50.759,68.744a.375.375,0,0,0-.135.665,6.021,6.021,0,0,1,1.126,1.037.351.351,0,0,1,.019.5,1.511,1.511,0,0,1-.59.407c-.448.193-.783.4-1.351,1.466A38.18,38.18,0,0,0,48.1,76.805l-.378.965c-.316.8-.6,1.579-.871,2.344a27.232,27.232,0,0,1-2.729,6A5.982,5.982,0,0,1,40.689,88.3a.372.372,0,0,0-.243.232.378.378,0,0,0,.041.333l.161.236a2.343,2.343,0,0,1,.255.461.378.378,0,0,0,.332.229,2.184,2.184,0,0,1,.875.184.309.309,0,0,1,.117.195.371.371,0,0,0,.167.249.362.362,0,0,0,.2.06.371.371,0,0,0,.093-.012,10.1,10.1,0,0,1,1.935-.223,10.2,10.2,0,0,0,1.916-.219c1.024-.259,2.051-.567,3.044-.866,1.19-.358,2.422-.727,3.647-1.012.777-.175,1.622-.342,2.494-.51a.374.374,0,0,0,.3-.351c.016-.348.036-.7.058-1.048.046-.745.093-1.516.083-2.279a.375.375,0,0,0-.518-.342c-2.993,1.232-6.213,2.521-9.479,3.606a.218.218,0,0,1-.251-.034.45.45,0,0,1-.073-.448c.011-.064.006-.107,0-.1a34.878,34.878,0,0,1,2.28-5.624c.587-1.237,1.193-2.515,1.687-3.814,1.038-2.73,1.209-3,3.843-3.585.981-.218,1.99-.374,2.966-.525A32.8,32.8,0,0,0,61,72.2c.2-.059.426-.142.678-.233,1.03-.371,2.591-.933,3.26-.262a1.317,1.317,0,0,1,.3.737.35.35,0,0,0,.387.315.375.375,0,0,0,.357-.347,8.2,8.2,0,0,0-.2-2.84.374.374,0,0,0-.334-.27.4.4,0,0,0-.369.221.759.759,0,0,1-.324.362,5.82,5.82,0,0,1-2.107.486c-.309.035-.606.068-.868.114-1.3.221-2.6.5-3.857.765-1.469.312-2.988.635-4.5.869a.347.347,0,0,1-.346-.133A.411.411,0,0,1,53,71.622c.01-.024.034-.087.177-.108,1.516-.237,3.019-.566,4.474-.885,1.118-.245,2.236-.49,3.368-.7.364-.067.738-.114,1.112-.162a12.145,12.145,0,0,0,1.913-.344c.238-.07.376-.292.547-.679a.373.373,0,0,0-.028-.356.379.379,0,0,0-.314-.171,20.613,20.613,0,0,1-8.033-1.343.382.382,0,0,0-.282,0,39.462,39.462,0,0,1-4.479,1.683C51.246,68.626,51.041,68.676,50.759,68.744Z" />
        <path
            d="M56.328,73.743c-.3.057-.6.113-.887.177a.376.376,0,0,0-.3.366,78.629,78.629,0,0,1-.412,8.452.375.375,0,0,0,.373.414.361.361,0,0,0,.141-.027l1.292-.534a.374.374,0,0,0,.233-.347V74.111a.373.373,0,0,0-.445-.368Z" />
        <path
            d="M116.75,51.093h-.179a.449.449,0,0,0-.031-.067.373.373,0,0,0-.269-.181.891.891,0,0,0-.261-.009l-.1.005a.375.375,0,0,0-.352.246,1.216,1.216,0,0,1-.059.128.376.376,0,0,0,.145.492,5.151,5.151,0,0,0,.673.316l.1.038.088.051a.368.368,0,0,0,.168.04.372.372,0,0,0,.356-.256c.027-.083.047-.162.091-.33a.375.375,0,0,0-.362-.473Z" />
        <path
            d="M54.274,80.005c.031-.552.056-1.109.08-1.65l.013-.276a.375.375,0,0,0-.432-.388c-.374.058-.757.13-1.13.216a.375.375,0,0,0-.29.365V80.44a.375.375,0,0,0,.531.341,4.143,4.143,0,0,0,.6-.321c.081-.062.188-.052.3-.1a.6.6,0,0,0,.114-.035A.369.369,0,0,0,54.274,80.005Z" />
        <path
            d="M49.157,81.893c.164-.052.327-.108.49-.164a8.976,8.976,0,0,1,1.129-.331l.781-.154a.375.375,0,0,0,.3-.369V78.658a.374.374,0,0,0-.491-.356c-.547.177-1.094.369-1.62.575a.376.376,0,0,0-.213.215c-.2.531-.383,1.036-.532,1.458l-.187.529c-.028.093-.066.182-.12.312a.376.376,0,0,0,.346.519A.4.4,0,0,0,49.157,81.893Z" />
        <path
            d="M116.252,52.7l-.147-.058c-.239-.1-.486-.194-.678-.293-.036-.024-.091-.06-.145-.1a.556.556,0,0,0-.571.081.375.375,0,0,0-.055.53c.051.061.11.123.165.181.04.042.079.08.105.113a3.693,3.693,0,0,1,.331.553,2.829,2.829,0,0,0,.144.275.376.376,0,0,0,.325.187h0a.379.379,0,0,0,.325-.2c.15-.279.285-.537.393-.759a.376.376,0,0,0-.2-.511Z" />
        <path
            d="M112.448,63.512a1.959,1.959,0,0,0,.384.034c.076,0,.149,0,.22-.006a1.679,1.679,0,0,0,.772-.156.378.378,0,0,0,.2-.221.374.374,0,0,0-.026-.293,6.551,6.551,0,0,1-.439-.974.377.377,0,0,0-.219-.231c-.369-.144-.744-.267-1.119-.376a.381.381,0,0,0-.38.106.373.373,0,0,0-.075.388l.042.107a2.184,2.184,0,0,1,.128.394c.045.25.1.5.167.732a.74.74,0,0,0,.046.13v.016A.374.374,0,0,0,112.448,63.512Z" />
        <path
            d="M101.814,57.146a.375.375,0,0,0,.115.668c2.259.626,4.129,1.165,5.886,1.7.782.235,1.578.414,2.348.588a26.037,26.037,0,0,1,2.967.8.368.368,0,0,0,.126.022.373.373,0,0,0,.32-.18c.178-.292.347-.576.512-.867a.379.379,0,0,0,.015-.338.374.374,0,0,0-.262-.213,24.1,24.1,0,0,1-3.279-1.129C107.488,56.982,104.005,55.614,101.814,57.146Z" />
        <path
            d="M104.383,52.9a1.748,1.748,0,0,1-.009-.247c0-.327-.006-.586-.191-.746l0,0q-.019-.017-.039-.03a.38.38,0,0,0-.347-.042,75.4,75.4,0,0,1-8.244,2.473c-2.455.634-4.993,1.291-7.423,2.163a.375.375,0,0,0-.019.7c.608.255,1.23.495,1.852.729a.375.375,0,0,0,.468-.184.232.232,0,0,1,.183-.123c2.851-.58,5.691-1.391,8.438-2.176,1.689-.483,3.436-.982,5.162-1.42a.374.374,0,0,0,.279-.412l-.017-.157A2.929,2.929,0,0,0,104.383,52.9Z" />
        <path
            d="M103.569,54.832a.375.375,0,0,0-.273.435.967.967,0,0,0,.09.276.4.4,0,0,0,.082.126.374.374,0,0,0,.289.11,6.7,6.7,0,0,1,.965.013h.029a.376.376,0,0,0,.375-.39,3.446,3.446,0,0,0-.057-.553.374.374,0,0,0-.168-.24.369.369,0,0,0-.288-.047c-.275.067-.55.139-.827.212Z" />
        <path
            d="M102.521,55.24a.378.378,0,0,0-.3-.043c-1.027.281-2.05.573-3.075.865-2.261.645-4.6,1.312-6.922,1.84a.375.375,0,0,0-.026.724l.142.045c.095.031.19.061.283.085,1.573.421,3.237.966,5.087,1.665a.381.381,0,0,0,.133.024.369.369,0,0,0,.131-.023c1.17-.436,2.418-.767,3.625-1.087l.41-.109a.376.376,0,0,0,0-.725l-1.087-.287a.26.26,0,0,1-.214-.3.376.376,0,0,0-.05-.2.353.353,0,0,1,.029-.419,3.936,3.936,0,0,1,1.784-1.272c.175-.061.252-.348.215-.532A.376.376,0,0,0,102.521,55.24Z" />
        <path
            d="M84.564,54.6a1.946,1.946,0,0,1,.3.357,1.738,1.738,0,0,0,.172.239.278.278,0,0,1,.067.294.375.375,0,0,0,.207.451l.937.419a.328.328,0,0,0,.136.028.452.452,0,0,0,.2-.049c.557-.222,1.126-.424,1.7-.626A.375.375,0,0,0,88.25,55c-.807-.208-1.606-.459-2.379-.7l-.365-.114a.485.485,0,0,1-.208-.126.379.379,0,0,0-.315-.106c-.038.005-.072,0-.153.011a.375.375,0,0,0-.266.64Z" />
        <path
            d="M120.642,23.766c-.508.122-1.024.265-1.531.429a.377.377,0,0,0-.15.092.407.407,0,0,0-.089.142c-.366.738-.745,1.473-1.127,2.213l-.353.685a.376.376,0,0,0,.334.547.348.348,0,0,0,.1-.015c.9-.253,1.631-.426,2.307-.546a.374.374,0,0,0,.3-.3c.2-1.049.416-1.959.652-2.78a.375.375,0,0,0-.447-.469Z" />
        <path
            d="M89.083,49.69H86.908c-.67,0-1.3.755-1.971,2.37-.091.2-.208.414-.364.692a.375.375,0,0,0,.327.558c.094,0,.189-.008.29-.016a.376.376,0,0,0,.215-.089.227.227,0,0,1,.072-.051l.023-.009a10.263,10.263,0,0,1,2.965-.813.37.37,0,0,0,.306-.235c.084-.213.154-.43.223-.646s.138-.434.219-.633a4.293,4.293,0,0,0,.231-.652.374.374,0,0,0-.361-.476Z" />
        <path
            d="M87.114,53.592a.376.376,0,0,0,.264.374l.576.184a11.473,11.473,0,0,0,2.571.619.4.4,0,0,1,.164.054.368.368,0,0,0,.176.044.407.407,0,0,0,.1-.014c.657-.189,1.323-.372,1.987-.553a.375.375,0,0,0,.019-.718c-.436-.144-.878-.279-1.352-.4a8.145,8.145,0,0,0-4.214.06A.375.375,0,0,0,87.114,53.592Z" />
        <path
            d="M114.732,51.334a2.063,2.063,0,0,0,.377-.99l.015-.155a1.294,1.294,0,0,0-.254-1.144,1.364,1.364,0,0,0-1.44-.212c-.017.007-.172.078-.187.086a1.53,1.53,0,0,0-.791,1.288c0,.074-.007.155-.013.239-.033.46-.088,1.231.674,1.472a2.157,2.157,0,0,0,.609.1.972.972,0,0,0,.688-.242.379.379,0,0,0,.1-.153.376.376,0,0,1,.135-.189A.366.366,0,0,0,114.732,51.334Z" />
        <path
            d="M48.8,62.684c.6-.249,1.206-.492,1.811-.734l1.242-.5a.374.374,0,0,0,.3-.309A.466.466,0,0,1,52.2,61l.013-.027a4.557,4.557,0,0,0,.271-1.494.376.376,0,0,0-.468-.37,4.982,4.982,0,0,0-.775.264,4.341,4.341,0,0,0-2.947,2.87.376.376,0,0,0,.118.376.372.372,0,0,0,.245.091A.377.377,0,0,0,48.8,62.684Z" />
        <path
            d="M115.9,44.178a.366.366,0,0,0-.341-.044.378.378,0,0,0-.234.255l-.111.4a13.868,13.868,0,0,0-.4,1.743,4.9,4.9,0,0,1-.188.731c-.047.155-.095.31-.135.466a.375.375,0,0,0,.192.426.361.361,0,0,0,.172.042.375.375,0,0,0,.286-.132,2.031,2.031,0,0,1,.673-.562l0,0a4.471,4.471,0,0,0,.851-.58c.133-.107.266-.215.406-.312a.375.375,0,0,0,.155-.386A3.439,3.439,0,0,0,115.9,44.178Z" />
        <path
            d="M119.836,57.675a.375.375,0,0,0-.32-.526l-.229-.014c-1.159-.072-2.363-.148-3.091.659a11.664,11.664,0,0,0-1.487,2.245.374.374,0,0,0,.329.554h.005a5.859,5.859,0,0,0,1.233-.2c.145-.035.286-.069.42-.1a9.73,9.73,0,0,1,1.45-.091,1.128,1.128,0,0,1,.283.038.366.366,0,0,0,.44-.23C119.144,59.293,119.46,58.528,119.836,57.675Z" />
        <path
            d="M118.753,64.441c-.009-.4-.058-.838-.108-1.288a10.506,10.506,0,0,1-.1-1.9.375.375,0,0,0-.443-.4,11.2,11.2,0,0,0-1.687.18l-.462.071a4.271,4.271,0,0,1-1.363.077.369.369,0,0,0-.345.124.375.375,0,0,0-.074.36,11.6,11.6,0,0,0,.743,1.679,11.9,11.9,0,0,1,.635,1.383c.389,1.114.746,1.845,2.13,1.845a1.128,1.128,0,0,0,.877-.315,1.692,1.692,0,0,0,.23-1.342C118.771,64.767,118.757,64.605,118.753,64.441Z" />
        <path
            d="M115.634,70.534a.444.444,0,0,0,.135-.022,3.519,3.519,0,0,0,1.086-.487c.092-.054.18-.107.272-.157.174-.1.348-.187.528-.274a.374.374,0,0,0-.029-.689c-1.124-.424-2.25-.837-3.376-1.251-2.537-.931-5.16-1.894-7.7-2.961-.863-.362-1.721-.749-2.577-1.137-1.3-.589-2.651-1.2-4.005-1.7A30.676,30.676,0,0,0,97,60.96,23.79,23.79,0,0,1,93.388,59.8c-2.257-1-4.551-1.906-6.708-2.75a.97.97,0,0,0-.214-.063.387.387,0,0,0-.089-.049l-1.4-.544c-1.55-.6-3.1-1.2-4.621-1.819-4.2-1.7-8.747-3.476-13.9-5.415a.25.25,0,0,1-.125-.093.378.378,0,0,0-.318-.147c-.2.012-.4.008-.591.006a6.032,6.032,0,0,0-.945.041,7.5,7.5,0,0,0-1.4.383.375.375,0,0,0,.014.709c1.849.6,3.713,1.364,5.514,2.1,1.006.413,2.008.824,3,1.207l6.776,2.6a.689.689,0,0,1,.328.116.38.38,0,0,0,.1.06q5.979,2.3,11.943,4.6,8.957,3.45,17.906,6.918c.722.279,1.556.647,2.457,1.045,1.348.6,2.876,1.269,4.4,1.808A.356.356,0,0,0,115.634,70.534Z" />
        <path
            d="M33,93.712a.376.376,0,0,0-.469.3c-.048.305-.1.6-.169.882a.374.374,0,0,0,.365.462.357.357,0,0,0,.136-.026c.512-.2,1.024-.387,1.542-.552a.375.375,0,0,0-.031-.723C33.913,93.956,33.456,93.837,33,93.712Z" />
        <path
            d="M63.64,53.035a2.909,2.909,0,0,1-.513.044,7.854,7.854,0,0,0-2.073.222h0l-.192.052a4.712,4.712,0,0,1-1.007.2.376.376,0,0,0-.34.264,6.1,6.1,0,0,0-.225,1.12.375.375,0,0,0,.372.419h.109c.046,0,.092,0,.138,0a3.936,3.936,0,0,0,1.681-.458l.275-.122c.3-.127,1.326-.579,2-.889a.374.374,0,0,0,.218-.34v-.14a.374.374,0,0,0-.134-.287A.383.383,0,0,0,63.64,53.035Z" />
        <path
            d="M38.127,93.986a.374.374,0,0,0,.179-.045c.032-.017,3.129-1.929,2.742-2.867-.228-.554-1.105-.3-1.526-.174h0a23.315,23.315,0,0,1-3.339.718,24.665,24.665,0,0,1-4.611.109.368.368,0,0,0-.387.3.374.374,0,0,0,.246.426,33.011,33.011,0,0,0,6.65,1.526A.371.371,0,0,0,38.127,93.986Z" />
        <path
            d="M10.915,63.729l.082.133a.374.374,0,0,0,.449.152c.872-.325,1.783-.6,2.665-.871.347-.106.7-.213,1.042-.322,3.088-.968,6.258-1.862,9.325-2.725,3.547-1,7.216-2.034,10.783-3.191.7-.229,1.4-.451,2.094-.673,2.339-.745,4.549-1.449,6.832-2.353l.948-.379a24.938,24.938,0,0,1,5.69-1.78,60.473,60.473,0,0,0,7.477-1.5,6.106,6.106,0,0,1,1.683-.09l.12.005a.357.357,0,0,0,.371-.266.375.375,0,0,0-.16-.427c-.069-.043-.136-.086-.2-.131a7.284,7.284,0,0,0-1.944-1.059.646.646,0,0,0-.269.02C44.07,51.459,30.137,55.9,16.661,60.185l-.766.244c-1.364.437-2.8.781-4.194,1.113-.572.138-1.144.274-1.713.417a.37.37,0,0,0-.259.314.4.4,0,0,0,.182.388,3.076,3.076,0,0,1,.49.365A3.587,3.587,0,0,1,10.915,63.729Z" />
        <path
            d="M61.054,101.142c1.4-.582,2.8-1.189,4.188-1.8a94.589,94.589,0,0,1,12.1-4.623.532.532,0,0,0,.134-.069l.1-.064a.371.371,0,0,0,.209-.264A.379.379,0,0,0,77.7,94a2.191,2.191,0,0,0-.459-.363.377.377,0,0,0-.316-.027c-.144.053-.293.113-.446.174a4.718,4.718,0,0,1-1.379.406.419.419,0,0,1-.309-.246c-.056-.2-.107-.4-.16-.607-.087-.34-.176-.688-.286-1.028a.377.377,0,0,0-.491-.234c-.084.032-.16.057-.243.083a.376.376,0,0,0-.208.557,3.788,3.788,0,0,1,.57,1.763c.012.143-.039.193-.085.22a.434.434,0,0,1-.422-.032.378.378,0,0,0-.319-.045,64.964,64.964,0,0,0-7.4,3q-.921.418-1.835.827c-1.244.55-2.562.991-3.838,1.417-1.261.422-2.566.859-3.8,1.4-.159.065-.29.081-.338.047a1.015,1.015,0,0,1-.459-.731,5.326,5.326,0,0,0-.158-.52,11.126,11.126,0,0,0-.638-1.424.374.374,0,0,0-.443-.185l-.547.169a.374.374,0,0,0-.214.546,8.136,8.136,0,0,1,.952,2.506.4.4,0,0,0,.03.149.33.33,0,0,1,.014.271c-.009.017-.037.067-.161.087a17.8,17.8,0,0,0-2.634.686c-2.066.653-3.849,1.217-5.594-.109a.375.375,0,0,0-.552.112,1.016,1.016,0,0,0,.027,1.1,3.633,3.633,0,0,0,2.781,1.154q.139,0,.264-.012l.265-.026a18.971,18.971,0,0,0,3.593-.579c2.368-.757,4.844-1.794,7.237-2.8Z" />
        <path
            d="M16.056,39.76c6.308,1.253,12.762,2.73,18.458,4.032,2.34.531,4.752.9,7.083,1.266,1.848.286,3.76.582,5.62.954.529.106,1.256.331,2.1.592a20.433,20.433,0,0,0,5.413,1.175,3.284,3.284,0,0,0,1.972-.521.375.375,0,0,0-.11-.66,17.9,17.9,0,0,0-1.814-.43c-.445-.088-.879-.175-1.271-.282-.594-.164-1.191-.345-1.79-.528a35.729,35.729,0,0,0-4.09-1.066c-1.519-.267-3.1-.483-4.629-.692a66.858,66.858,0,0,1-8.438-1.524,117.906,117.906,0,0,0-11.495-2.639c-.76-.128-1.577-.229-2.417-.334-1.29-.16-2.625-.326-3.887-.6a.473.473,0,0,0-.442.249c-.143.114-.287.236-.429.358a.375.375,0,0,0,.17.653Z" />
        <path
            d="M63.421,51.525c-.037-.009-.073-.022-.109-.034l-.284-.083a1.407,1.407,0,0,1-.639-.273l-.009-.01a1.643,1.643,0,0,1-.25-.393.345.345,0,0,0-.351-.2.391.391,0,0,0-.338.237l-.055.091a.369.369,0,0,0-.039.315l.031.094a4.477,4.477,0,0,1,.1.8.374.374,0,0,0,.375.365h.034c.065-.006.131-.012.191-.012l.4,0c.264,0,.528,0,.791,0a.378.378,0,0,0,.354-.233l.047-.135a.352.352,0,0,0,.02-.079.373.373,0,0,0-.274-.454Z" />
        <path
            d="M14.1,37.624a.353.353,0,0,0-.172-.038,9.325,9.325,0,0,0-2.843.513.375.375,0,0,0,.06.722c.889.162,1.775.331,2.664.5l.21.039a.326.326,0,0,0,.07.007.372.372,0,0,0,.219-.071,3.974,3.974,0,0,1,.513-.3,2.568,2.568,0,0,0,.463-.278.375.375,0,0,0-.1-.653A9.271,9.271,0,0,1,14.1,37.624Z" />
        <path
            d="M6.691,63.263c.151,1,.473,1.6.988,1.837a1.176,1.176,0,0,0,.5.11,1.8,1.8,0,0,0,.945-.308c.27-.092.533-.2.793-.3l.186-.076a.375.375,0,0,0,.176-.551,2.422,2.422,0,0,0-.709-.745c-.085-.059-.176-.118-.269-.179a3.971,3.971,0,0,1-.682-.509.375.375,0,0,0-.373-.1c-.441.128-.875.264-1.31.413A.376.376,0,0,0,6.691,63.263Z" />
        <path
            d="M25.348,98.026a11.461,11.461,0,0,0,4.685-1.463c.32-.15.641-.3.976-.455.074-.036.148-.067.227-.1a.472.472,0,0,0,.237-.419.379.379,0,0,1,0,.082.376.376,0,0,0-.5-.478,13.062,13.062,0,0,1-2.55.685c-.369.073-.724.143-1.046.221l-.429.108a5.985,5.985,0,0,1-2.512.3h0a3.488,3.488,0,0,1-.527-.2c-.5-.221-1.181-.522-1.737-.023a.374.374,0,0,0-.125.289.378.378,0,0,0,.14.283A4.906,4.906,0,0,0,25.348,98.026Z" />
        <path
            d="M80.784,60.757a.376.376,0,0,0,.25.1.432.432,0,0,0,.062-.005c.542-.091,1.085-.174,1.628-.244a.373.373,0,0,0,.321-.308,2.165,2.165,0,0,1,.492-1.1.375.375,0,0,0-.144-.6l-2.758-1.06a.375.375,0,0,0-.464.529,4.47,4.47,0,0,1,.489,2.391A.371.371,0,0,0,80.784,60.757Z" />
        <path
            d="M87.378,63.381a.389.389,0,0,0,.236.072.471.471,0,0,0,.143-.022,8.812,8.812,0,0,1,.948-.284c.263-.052.526-.091.791-.131.31-.046.619-.093.927-.157.437-.092.89-.2,1.336-.3a.375.375,0,0,0,.048-.715l-4.631-1.781a.375.375,0,0,0-.483.49,5.75,5.75,0,0,1,.513,2.517A.382.382,0,0,0,87.378,63.381Z" />
        <path
            d="M24.967,84.5a.376.376,0,0,0,.226.419.377.377,0,0,0,.454-.141,53.923,53.923,0,0,1,3.559-4.625c1.142-1.375,2.321-2.8,3.384-4.351.2-.289.393-.578.586-.863,1.744-2.59,3.25-4.827,6.394-5.108a.374.374,0,0,0,.33-.281.233.233,0,0,1,.065-.12,1.082,1.082,0,0,0,.136-.189c.326-.355.653-.731.984-1.112.394-.454.8-.916,1.216-1.362a.375.375,0,0,0-.374-.618,18.549,18.549,0,0,0-6.388,2.711c-3.613,2.669-6.056,6.764-8.211,10.376h0A17.194,17.194,0,0,0,24.967,84.5Z" />
        <path
            d="M70.7,89.919a5.924,5.924,0,0,1,1.23,1.07l.212.22c.085.084.165.171.245.257l.136.144a.373.373,0,0,0,.271.117.393.393,0,0,0,.126-.022c.191-.069.379-.131.57-.193a.375.375,0,0,0,.195-.568,6.478,6.478,0,0,0-2.538-2.186.371.371,0,0,0-.342-.036l-.2.078c-.139.056-.277.113-.425.159a.374.374,0,0,0-.263.344.378.378,0,0,0,.236.363A3.467,3.467,0,0,1,70.7,89.919Z" />
        <path
            d="M117.528,71.128a11.557,11.557,0,0,0,2.8.4,6.4,6.4,0,0,0,1.38-.141.363.363,0,0,0,.252-.334.437.437,0,0,0-.228-.4c-.1-.055-.189-.1-.259-.139l-.024-.011c-.763-.321-1.572-.617-2.334-.891a.376.376,0,0,0-.346.048,8.863,8.863,0,0,1-1.313.774.375.375,0,0,0,.072.7Z" />
        <path
            d="M52.876,98.027A.375.375,0,0,0,53.019,98c.2-.082.393-.159.592-.234a.375.375,0,0,0,.171-.571,8.022,8.022,0,0,0-3.212-2.751c-.016-.014-.08-.062-.1-.073a.376.376,0,0,0-.26-.047c-.306.055-.611.1-.917.152a.375.375,0,0,0-.1.711,9.629,9.629,0,0,1,3.389,2.7A.374.374,0,0,0,52.876,98.027Z" />
        <path
            d="M82.892,70.964A17.472,17.472,0,0,1,76.93,70.1l-.1-.033a.38.38,0,0,0-.473.175c-1.144,2.2-2.628,5.131-3.95,8.317a12.69,12.69,0,0,1-7.046,7,.379.379,0,0,0-.163.139c-.033.052-.114.057-.171.054a.355.355,0,0,0-.171.028,27.207,27.207,0,0,1-3.633,1.19c-1.453.375-2.945.709-4.386,1.033-2.279.511-4.636,1.04-6.914,1.743a41.694,41.694,0,0,1-4.291,1.12,8.417,8.417,0,0,1-1.086.085,5.786,5.786,0,0,0-2.392.411.379.379,0,0,0-.25.207,5.284,5.284,0,0,1-1.675,1.97.375.375,0,0,0,.2.672c1.107.078,2.228.116,3.394.116q.9,0,1.83-.03c4.635-.155,9.348-1.55,13.777-2.965,1.5-.476,3.058-.872,4.568-1.254a61.67,61.67,0,0,0,6.022-1.747c4.677-1.71,7.9-4.814,10.148-9.768.954-2.109,2.066-4.6,3.079-7.08a.378.378,0,0,0-.039-.355A.371.371,0,0,0,82.892,70.964Z" />
        <path
            d="M77.8,67.473l-.666,1.264a.376.376,0,0,0,.222.534,19.415,19.415,0,0,0,5.649,1.015c.162,0,.325,0,.488-.01a.374.374,0,0,0,.334-.236c.7-1.764,1.333-3.492,1.875-5.137a.375.375,0,0,0-.167-.44l-.122-.072c-1.028-.6-1.917-1.123-2.261-2.312a4.01,4.01,0,0,1-.109-.506.369.369,0,0,0-.419-.317l-.175.023c-.552.07-1.119.142-1.687.231a.376.376,0,0,0-.307.281,11.161,11.161,0,0,1-.923,2.374C78.96,65.283,78.38,66.382,77.8,67.473Z" />
        <path
            d="M84.433,59.522a.826.826,0,0,0-.721.758h0c-.142.744-.1,2.434.95,2.91a8.963,8.963,0,0,1,1.172.668.375.375,0,0,0,.2.06.381.381,0,0,0,.266-.11.588.588,0,0,0,.057-.081c.632-.758-.29-3.028-.3-3.052A2.035,2.035,0,0,0,84.433,59.522Z" />
        <path
            d="M70.529,67.631a.374.374,0,0,0,.374-.35c.022-.319.044-.694.058-1.019a.376.376,0,0,0-.1-.271.372.372,0,0,0-.262-.12l-1.391-.05c-1.229-.045-2.46-.09-3.689-.105a.373.373,0,0,0-.378.411,7.669,7.669,0,0,1,.025,1.017.372.372,0,0,0,.105.274.377.377,0,0,0,.27.115h0c1.621-.006,3.219-.006,4.849.088C70.406,67.623,70.514,67.631,70.529,67.631Z" />
        <path
            d="M56.862,63.359a2.743,2.743,0,0,1-.3-.144l-.2-.1a.376.376,0,0,0-.537.323c-.038.927-.109,2.654,1.061,3.032.35.11.692.231,1.032.35.308.108.614.216.924.316a.375.375,0,0,0,.488-.319,2.852,2.852,0,0,0-1.013-2.638A4.765,4.765,0,0,0,56.862,63.359Z" />
        <path
            d="M69.028,76.718a.359.359,0,0,0,.081-.009c.413-.092.686-.2.78-.48l.11-.424c.111-.429.222-.86.372-1.28v0c.161-.463.354-.939.57-1.414.049-.108.126-.25.213-.41a6.164,6.164,0,0,0,.6-1.356.377.377,0,0,0-.356-.462,5.218,5.218,0,0,0-1.806.283v0c-.3.073-.944.278-.944.651v4.526a.377.377,0,0,0,.375.375Z" />
        <path
            d="M66.273,68.438a.376.376,0,0,0-.027.367,8.622,8.622,0,0,1,.355,4.7.38.38,0,0,0,.134.328.4.4,0,0,0,.354.078,1.346,1.346,0,0,1,.445-.063A.377.377,0,0,0,68,73.48v-.189a5.46,5.46,0,0,0-.059-.625c-.057-.449-.177-1.381.062-1.571a5.463,5.463,0,0,1,4.12-.768.426.426,0,0,1,.287.25c.276.671-.547,2.3-.989,3.177a7.45,7.45,0,0,0-.421.914c-.073.239-.132.491-.192.747a3.853,3.853,0,0,1-.67,1.683,1.783,1.783,0,0,1-.881.261c-.187.027-.369.054-.528.093a.39.39,0,0,0-.125.056.594.594,0,0,1-.527.021c-.077-.04-.077-.075-.077-.1V74.806a.4.4,0,0,0-.2-.3.456.456,0,0,0-.384-.028,2.827,2.827,0,0,0-.478.094c-.081.021-.162.042-.245.057a.376.376,0,0,0-.3.313l-.021.137c-.077.512-.153,1.01-.2,1.483-.142,1.224-.251,2.448-.361,3.67-.124,1.376-.252,2.8-.424,4.193a.375.375,0,0,0,.539.382,10.605,10.605,0,0,0,4.474-3.821h0a33.691,33.691,0,0,0,2.581-5.55,37.014,37.014,0,0,1,2.2-4.9q.112-.2.247-.412a.375.375,0,0,0-.217-.559,36.107,36.107,0,0,0-8.606-1.3A.357.357,0,0,0,66.273,68.438ZM69.841,79.4a1.758,1.758,0,0,1-.694.059,1.4,1.4,0,0,0-.532.115l.133.351-.157-.357a.888.888,0,0,0-.3.056.364.364,0,0,1-.488-.1.387.387,0,0,1-.019-.289.215.215,0,0,1,.1-.132,4.933,4.933,0,0,1,.917-.272,1.132,1.132,0,0,1,.3-.012,1.482,1.482,0,0,0,.637-.075.219.219,0,0,1,.165.022.383.383,0,0,1,.2.217C70.173,79.24,69.917,79.365,69.841,79.4Z" />
        <path
            d="M73.442,60.839a.374.374,0,0,0-.322-.034c-.81.287-1.709.576-2.748.885-.561.171-1.159.312-1.765.456A14.968,14.968,0,0,0,64.834,63.4a.377.377,0,0,0-.178.437c.1.316.185.624.261.94a.38.38,0,0,0,.408.285l.025,0c1.162.01,2.322.054,3.482.1.764.029,1.527.058,2.286.077a.31.31,0,0,1,.186.074.383.383,0,0,0,.145.066c.044.008.187.046.187.131a16.452,16.452,0,0,1-.1,1.873.376.376,0,0,0,.309.412c.318.055.642.117.96.186a.363.363,0,0,0,.08.009.375.375,0,0,0,.359-.268,13.417,13.417,0,0,0,.325-3.673c0-.435,0-.85.014-1.228.006-.173.017-.343.027-.508a6.18,6.18,0,0,0,0-1.193A.373.373,0,0,0,73.442,60.839ZM72,63.316a6.177,6.177,0,0,0-.655.059,5.238,5.238,0,0,1-.573.054h0a.228.228,0,0,1-.242-.111.41.41,0,0,1,0-.388.289.289,0,0,1,.265-.155,5.871,5.871,0,0,0,.652-.059,5,5,0,0,1,.58-.053h.016a.257.257,0,0,1,.2.073.34.34,0,0,1,.078.219A.326.326,0,0,1,72,63.316Z" />
        <path
            d="M60.256,67.478a6.079,6.079,0,0,0,1.055.1c.619,0,1.236-.007,1.854-.013l.961-.008A.377.377,0,0,0,64.5,67.2a8.7,8.7,0,0,0-.408-2.974l-.061-.213c-.2-.7-.448-1.575-1.2-1.9a.368.368,0,0,0-.312-.033c-.431.146-.847.278-1.245.4a8.41,8.41,0,0,1-2.495.383.375.375,0,0,0-.236.666,3.878,3.878,0,0,1,.478.438,3.55,3.55,0,0,1,.931,3.1A.375.375,0,0,0,60.256,67.478Z" />
        <path
            d="M39.035,70.55c-2.448.438-3.6,2.176-4.822,4.015-.173.26-.348.523-.528.788-.2.293-.419.662-.651,1.054A9.646,9.646,0,0,1,31.4,78.691a20.182,20.182,0,0,0-3.037,3.131.375.375,0,0,0,.043.511A5.849,5.849,0,0,0,29.37,83a5.607,5.607,0,0,0,1.079.489.406.406,0,0,0,.12.018.375.375,0,0,0,.337-.21,54.342,54.342,0,0,1,6.73-9.9c.584-.737,1.174-1.48,1.762-2.241a.375.375,0,0,0-.363-.6Z" />
        <path
            d="M36.688,90.977a.377.377,0,0,0,.243-.206.369.369,0,0,0,0-.318l-.048-.1a2.327,2.327,0,0,1-.294-.847.376.376,0,0,0-.13-.277.363.363,0,0,0-.293-.088l-.817.1c-.522.063-1.008.123-1.445.188-.145.023-.313.052-.5.086-1.027.184-2.941.527-3.447-.239-.69-1.033-.336-3.09.294-4.578a1.235,1.235,0,0,0,.078-.18.374.374,0,0,0-.234-.476A6.237,6.237,0,0,1,28.057,82.9a.376.376,0,0,0-.552.068,40.892,40.892,0,0,0-2.436,3.994c.021-.062.06-.1.024-.067a.376.376,0,0,0-.1.363,6.111,6.111,0,0,0,2.716,3.465.412.412,0,0,0,.18.062c.432.04.918.1,1.438.158a39.745,39.745,0,0,0,4.511.349A11.105,11.105,0,0,0,36.688,90.977Z" />
        <path
            d="M57.822,53.481a1.133,1.133,0,0,0,.234,1.662.374.374,0,0,0,.194.054.383.383,0,0,0,.165-.038.377.377,0,0,0,.207-.293c.021-.172.047-.351.08-.523.018-.079.049-.172.08-.267l.052-.161a.387.387,0,0,0-.238-.466c-.1-.037-.2-.074-.29-.117A.375.375,0,0,0,57.822,53.481Z" />
        <path
            d="M58.994,52.956c.071.026.142.05.28.1a.237.237,0,0,0,.072.01.669.669,0,0,0,.336-.118,3.541,3.541,0,0,1,.418-.168c.143-.051.287-.1.426-.167.331-.151.408-.492.218-1.039a.373.373,0,0,0-.367-.3c-.5,0-1,0-1.5.021a.373.373,0,0,0-.358.349C58.5,51.906,58.439,52.721,58.994,52.956Z" />
        <path
            d="M70.372,58.116a.373.373,0,0,0-.369.072,19.98,19.98,0,0,1-5.985,3.35.374.374,0,0,0-.149.6,2.611,2.611,0,0,1,.313.462.376.376,0,0,0,.328.193.391.391,0,0,0,.171-.041,15.477,15.477,0,0,1,3.335-1.09c.552-.137,1.1-.271,1.625-.429,1.01-.3,2.088-.632,3.118-.995a.375.375,0,0,0,.178-.576,1.321,1.321,0,0,0-.113-.133,4.591,4.591,0,0,0-2.352-1.367Z" />
        <path
            d="M70.29,55.149l-.1-.16a8.851,8.851,0,0,1-.494-.864.532.532,0,0,0-.082-.115.372.372,0,0,0-.265-.11h-.266a.367.367,0,0,0-.361.092c-1.49,1.451-3.722,3.269-5.887,3.69a10.069,10.069,0,0,1-7.126-.689.375.375,0,0,0-.358.032.385.385,0,0,0-.162.232A5.987,5.987,0,0,1,53.21,60.03a.382.382,0,0,0-.139.254c-.013.129-.032.251-.057.379a.374.374,0,0,0,.271.437c.453.12.894.251,1.326.379a14.063,14.063,0,0,0,4.038.78,7.615,7.615,0,0,0,2.48-.416c2.465-.833,7.593-2.566,9.7-5.5a.374.374,0,0,0-.016-.458A7.869,7.869,0,0,1,70.29,55.149Z" />
        <path
            d="M68.324,52.729c-.521-.218-1.049-.43-1.577-.641a.44.44,0,0,0-.478.179c-.018.025-.036.052-.056.076a3.03,3.03,0,0,0-.425.656,2.417,2.417,0,0,1-.314.5.367.367,0,0,0-.124.157c-.184.436-.877.721-1.489.972l-.354.148c-.289.123-.569.252-.845.381a6.773,6.773,0,0,1-2.875.852h-.132c-1.114,0-2.328,0-2.815-1a1.2,1.2,0,0,1-.079-.264.375.375,0,0,0-.675-.154,3.893,3.893,0,0,0-.554,1.262.374.374,0,0,0,.2.437,9.9,9.9,0,0,0,4.376,1.084,11.253,11.253,0,0,0,3.136-.486,14.891,14.891,0,0,0,5.2-3.539.375.375,0,0,0-.119-.613Z" />
        <path
            d="M77.561,56.6a.38.38,0,0,0-.14-.039c-.687-.052-1.661-.153-2.543-.265a14.971,14.971,0,0,0-2.75-.037l-.282.014a.374.374,0,0,0-.3.175,5.974,5.974,0,0,1-.489.659.375.375,0,0,0,.157.594c1.538.566,3.173,1.914,3.173,3.3,0,.179-.007.361-.014.542l-.008.233a.375.375,0,0,0,.375.386.4.4,0,0,0,.078-.008c.162-.034.326-.063.493-.092.21-.037.426-.076.648-.125.421-.086.833-.208,1.244-.331a10.868,10.868,0,0,1,1.477-.367c.3-.043.595-.092.893-.142a.376.376,0,0,0,.313-.34A3.943,3.943,0,0,0,77.561,56.6Z" />
        <path
            d="M79.515,61.915a.378.378,0,0,0-.35-.114c-.251.05-.5.1-.739.158-.395.1-.83.175-1.276.256a12.726,12.726,0,0,0-2.627.668.374.374,0,0,0-.227.323c-.063,1.041-.162,2.088-.259,3.077l-.019.193a13.517,13.517,0,0,1-.192,1.376.375.375,0,0,0,.268.439c.606.167,1.212.348,1.811.537a.4.4,0,0,0,.113.017.374.374,0,0,0,.317-.176,27.325,27.325,0,0,0,3.264-6.4A.376.376,0,0,0,79.515,61.915Z" />
        <path d="M51.749,98.237l-1.642.966a.5.5,0,0,0,.5.864l1.643-.966A.5.5,0,0,0,51.749,98.237Z" />
        <path
            d="M55.133,98.187l16.805-5.461c.61-.2.349-1.164-.265-.964l-16.806,5.46C54.258,97.42,54.519,98.386,55.133,98.187Z" />
        <path
            d="M75.792,91.442l1.463-.671c.584-.268.077-1.131-.5-.864l-1.462.671C74.7,90.846,75.211,91.709,75.792,91.442Z" />
        <path
            d="M28.876,92.523l-.653.329c-.575.289-.069,1.152.505.864l.652-.329C29.955,93.1,29.449,92.235,28.876,92.523Z" />
        <path
            d="M23.7,85.527l.492-1.307a1.009,1.009,0,0,0-.7-1.23,1.022,1.022,0,0,0-1.23.7L21.769,85a1.008,1.008,0,0,0,.7,1.23A1.022,1.022,0,0,0,23.7,85.527Z" />
        <path
            d="M112.774,47.332c.131.63,1.095.363.964-.266a2.881,2.881,0,0,0-.736-1.4c-.439-.472-1.145.236-.707.707A1.885,1.885,0,0,1,112.774,47.332Z" />
        <path
            d="M111.67,52.952q-.251.816-.5,1.631c-.189.616.776.88.965.265q.251-.814.5-1.63C112.824,52.6,111.859,52.338,111.67,52.952Z" />
        <path d="M111.967,49.474h-.98a.5.5,0,0,0,0,1h.98A.5.5,0,0,0,111.967,49.474Z" />
    </g>
</svg>