<svg xmlns="http://www.w3.org/2000/svg" x="0" y="0" viewBox="0 0 128 160"><g><path d="M35.275,72.529c.572-.159,1.188.555,1.5.994a.248.248,0,0,0,.2.105c.53,0,1.167.057,1.842.111.406.033.825.067,1.241.093h.012a.278.278,0,0,0,.238-.161,1.649,1.649,0,0,0,.192-.646,1.816,1.816,0,0,1,.06-.486,1.525,1.525,0,0,1,.917-.906.25.25,0,0,0,.16-.21A17.108,17.108,0,0,1,42.6,67.7l.07-.208a.253.253,0,0,0-.043-.238.249.249,0,0,0-.224-.09c-1.8.214-4.041.481-6.148.862a.248.248,0,0,0-.2.2,25.536,25.536,0,0,1-1.08,3.979.249.249,0,0,0,.3.327Z"/><path d="M37.482,59.669c-.688-.336-1.373-.76-2.1-1.208a18.687,18.687,0,0,0-3.19-1.7.247.247,0,0,0-.3.105.25.25,0,0,0,.047.316c.43.382.917.76,1.389,1.125a12.324,12.324,0,0,1,2.631,2.463.251.251,0,0,0,.2.107h.026a9.151,9.151,0,0,0,1.868-.391.25.25,0,0,0,.057-.448A7.309,7.309,0,0,0,37.482,59.669Z"/><path d="M35.317,61.834c-.661.057-1.324.091-1.978.124-.5.025-1,.05-1.494.085a44.343,44.343,0,0,0-4.912.733c-1.21.227-2.461.462-3.693.611a.251.251,0,0,0-.219.275,9.005,9.005,0,0,1,.041.969.249.249,0,0,0,.25.25h0c1.9-.044,3.776-.264,5.593-.477a55.577,55.577,0,0,1,5.6-.465c.194,0,.39-.012.587-.021s.374-.017.558-.02a.25.25,0,0,0,.245-.244,3.423,3.423,0,0,0-.339-1.687A.258.258,0,0,0,35.317,61.834Z"/><path d="M43.532,64.441a.25.25,0,0,0-.272-.3c-1.489.168-3.017.257-4.494.343-.673.039-1.344.078-2.014.124a.25.25,0,0,0-.231.228c-.072.828-.156,1.547-.256,2.2a.249.249,0,0,0,.247.288l.037,0c1.331-.2,2.659-.426,3.987-.652q1.185-.2,2.371-.4a.248.248,0,0,0,.2-.177C43.274,65.511,43.413,64.972,43.532,64.441Z"/><path d="M21.623,59.2c-.617.1-1.316.209-2,.366a.251.251,0,0,0-.044.473,8.384,8.384,0,0,1,2.56,1.628,2.89,2.89,0,0,1,.549.762.251.251,0,0,0,.224.138l.026,0A73.937,73.937,0,0,0,30.8,61.277h0A17.763,17.763,0,0,1,34.019,61l.3-.008a.25.25,0,0,0,.175-.421,19.772,19.772,0,0,0-1.847-1.659,16.156,16.156,0,0,1-2.168-2.023.245.245,0,0,0-.249-.083,9.232,9.232,0,0,1-1.155.166,8.275,8.275,0,0,0-.888.119.246.246,0,0,0-.094.018c-.328.133-.658.271-.988.41a22.428,22.428,0,0,1-4.5,1.521C22.3,59.1,21.974,59.147,21.623,59.2Z"/><path d="M43.666,61.958a5.459,5.459,0,0,1-1.509-.065c-.231-.031-.462-.061-.686-.08a3.763,3.763,0,0,1-2.06-.84.255.255,0,0,0-.3.006l-.05.041a9.957,9.957,0,0,1-2.327.64.246.246,0,0,0-.167.109.243.243,0,0,0-.036.2,3.5,3.5,0,0,1,.108.9c-.006.213-.018.436-.03.657l0,.069a.253.253,0,0,0,.073.19.249.249,0,0,0,.177.073h.013c2.156-.119,4.423-.329,6.74-.625a.25.25,0,0,0,.214-.2l.017-.092c.042-.229.084-.458.119-.686a.25.25,0,0,0-.071-.217A.256.256,0,0,0,43.666,61.958Z"/><path d="M45.037,71.153c.526-.239,1.067-.461,1.606-.683.85-.349,1.729-.71,2.541-1.139s1.581-.912,2.329-1.383c.8-.5,1.627-1.023,2.485-1.462l.935-.466a.252.252,0,0,0,.129-.288.245.245,0,0,0-.254-.186c-.539.028-1.079.069-1.626.123-1.366.146-2.751.368-4.091.583-.8.127-1.59.255-2.385.368-.269.04-.544.073-.819.107a.25.25,0,0,0-.211.181c-.346,1.236-.705,2.572-.988,3.968a.25.25,0,0,0,.246.3A.249.249,0,0,0,45.037,71.153Z"/><path d="M63.781,61.157c-1.387.167-2.784.453-4.135.729a40.575,40.575,0,0,1-5.122.822c-2.65.185-5.405.57-7.751.924a.25.25,0,0,0-.2.178L46.1,65.421a.249.249,0,0,0,.24.32.177.177,0,0,0,.032,0c.669-.088,1.336-.169,2.012-.237,3.357-.348,6.386-.656,9.467-.893a.239.239,0,0,0,.087-.023l.233-.109c1.911-.894,3.887-1.819,5.758-2.853a.251.251,0,0,0,.117-.3A.241.241,0,0,0,63.781,61.157Z"/><path d="M44.559,64.138c-.114.61-.228,1.106-.36,1.561a.252.252,0,0,0,.051.233.248.248,0,0,0,.189.087.194.194,0,0,0,.034,0c.083-.011.165-.024.247-.038l.2-.03a.25.25,0,0,0,.2-.177c.083-.283.164-.567.246-.854l.215-.746a.251.251,0,0,0-.278-.317l-.536.082A.249.249,0,0,0,44.559,64.138Z"/><path d="M44.382,72.555c-.022.133-.041.258-.056.391a.249.249,0,0,0,.249.276.276.276,0,0,0,.057-.006c.715-.166,1.456-.3,2.174-.439.514-.1,1.03-.192,1.541-.3,2.511-.529,5.357-1.021,8.956-1.549a.249.249,0,0,0,.2-.177,18.008,18.008,0,0,0,.688-4.955.25.25,0,0,0-.355-.228c-1.112.52-2.575,1.216-4.025,1.986-.778.416-1.523.909-2.244,1.385a25.54,25.54,0,0,1-2.454,1.492,23.258,23.258,0,0,1-2.264.953,23.736,23.736,0,0,0-2.336.985A.254.254,0,0,0,44.382,72.555Z"/><path d="M42.685,72.751a.553.553,0,0,1-.034-.14.25.25,0,0,0-.181-.192c-.152-.04-.768-.127-1,.172a.814.814,0,0,0-.125.51c0,.038,0,.072,0,.105a1.569,1.569,0,0,1-.077.334.251.251,0,0,0,.238.326h.008a6.271,6.271,0,0,0,1.27-.156.258.258,0,0,0,.158-.377,1.921,1.921,0,0,1-.134-.3C42.765,72.938,42.729,72.844,42.685,72.751Z"/><path d="M43.69,67.145A18.062,18.062,0,0,0,42.5,71.326a.244.244,0,0,0,.051.194.221.221,0,0,0,.173.084.389.389,0,0,1,.265.29.25.25,0,0,0,.155.168.253.253,0,0,0,.227-.028l.183-.116a.251.251,0,0,0,.1-.163c.239-1.34.565-2.736,1.053-4.524A.253.253,0,0,0,44.664,67a.257.257,0,0,0-.218-.085l-.55.067A.253.253,0,0,0,43.69,67.145Z"/><path d="M57.369,59.105c-1.791-.511-3.642-1.136-5.826-1.964-.439-.17-.973-.34-1.538-.519-.262-.083-.532-.169-.806-.259a.245.245,0,0,0-.224.035.25.25,0,0,0-.1.2,17.2,17.2,0,0,1-.36,3.474.249.249,0,0,0,.05.207.362.362,0,0,0,.3.094,19.259,19.259,0,0,0,2.451-.209,18.134,18.134,0,0,1,2.487-.2,30.841,30.841,0,0,0,3.425-.07.249.249,0,0,0,.215-.247v-.076a.323.323,0,0,0,.1-.15.247.247,0,0,0-.019-.192A.252.252,0,0,0,57.369,59.105Z"/><path d="M48.037,56.123a.248.248,0,0,0-.159-.229l-.3-.121a.253.253,0,0,0-.191,0,.248.248,0,0,0-.134.138l-.065.166a30.554,30.554,0,0,1-2.158,4.68.259.259,0,0,0-.035.1l-.086.708c-.047.388-.094.783-.145,1.181a.245.245,0,0,0,.072.209.248.248,0,0,0,.176.073.207.207,0,0,0,.035,0l.712-.094a.251.251,0,0,0,.206-.182c.038-.14.071-.279.105-.42.028-.113.055-.227.084-.339a.4.4,0,1,1,.772.214.478.478,0,0,0-.125.183.25.25,0,0,0,.274.326c1.661-.248,3.281-.513,4.9-.778,1.074-.176,2.147-.352,3.23-.522a.251.251,0,0,0,.211-.248v-.122a.252.252,0,0,0-.282-.248c-.085,0-.523.009-.939.014l-.471,0a22.633,22.633,0,0,0-2.28.211,13.723,13.723,0,0,1-3.447.15.549.549,0,0,1-.4-.218.367.367,0,0,1-.043-.321A15.669,15.669,0,0,0,48.037,56.123Z"/><path d="M112.013,46.263c-.221.6-.433,1.2-.645,1.8a47.221,47.221,0,0,1-2.09,5.252.251.251,0,0,0,.219.361c.543.013,1.093.027,1.649.034h0a.252.252,0,0,0,.242-.183,31.725,31.725,0,0,0,.8-4.834c.079-.681.155-1.349.245-1.98V46.71c.008-.07.023-.143.038-.215l.02-.1a.251.251,0,0,0-.18-.288A.248.248,0,0,0,112.013,46.263Z"/><path d="M84.188,52.752h0c2.876-.032,5.722-.08,8.565-.128q3.011-.051,6.021-.1a7.661,7.661,0,0,0,1.214-.139.249.249,0,0,0,.174-.121c.787-1.353,1.725-2.677,2.631-3.958.923-1.3,1.877-2.653,2.688-4.051.515-.883,1.017-1.767,1.52-2.652,1.04-1.83,2.115-3.723,3.266-5.539a.251.251,0,0,0-.211-.384h-1.369c-.032,0-.13,0-.21-.186a.251.251,0,0,0-.186-.148.262.262,0,0,0-.226.073c-.559.59-1.061,1.125-1.537,1.716a28.563,28.563,0,0,0-2.762,4.35c-.224.405-.45.812-.682,1.219-.132.23-.273.487-.422.76-.976,1.782-2.312,4.221-4.112,4.735s-3.633,1.006-5.408,1.482c-2.035.545-4.138,1.108-6.194,1.709-.554.16-1.11.334-1.668.508-.387.121-.776.244-1.167.361a.25.25,0,0,0,.073.489Z"/><path d="M81.9,54.121c2.08.71,4.181,1.566,6.211,2.393l1.169.475a.224.224,0,0,0,.085.015.292.292,0,0,0,.168-.054.92.92,0,0,1,.117-.076.418.418,0,0,1,.214-.029,20.155,20.155,0,0,0,3.891-.48,13.357,13.357,0,0,1,2.963-.192h0a.25.25,0,0,0,.187-.084c.965-1.095,2.672-1.485,4.178-1.83.273-.062.54-.123.793-.187a16.873,16.873,0,0,1,3.612-.467.249.249,0,0,0,.239-.218.393.393,0,0,0-.113-.333c-.294-.3-1.115-.262-2.732-.078-.272.031-.509.058-.675.069-.345.027-.714.089-1.105.155a10.2,10.2,0,0,1-1.453.176c-2.074.027-4.19.082-6.258.136-3.231.092-8.536.116-11.412.122a.25.25,0,0,0-.08.487Z"/><path d="M112.912,35.652a.178.178,0,0,1-.075.032h-1.18a.25.25,0,0,0-.21.114c-1.041,1.609-1.989,3.289-2.907,4.914-.74,1.312-1.506,2.668-2.313,3.974-.754,1.221-1.606,2.44-2.431,3.619-.773,1.1-1.571,2.247-2.291,3.393a.251.251,0,0,0,.212.383l.041,0a11.106,11.106,0,0,1,3.66-.165.256.256,0,0,0,.289-.162,61.86,61.86,0,0,1,3.367-8.242c.618-1.2,1.311-2.388,1.982-3.542.751-1.3,1.528-2.634,2.208-3.988a.25.25,0,0,0-.352-.327Z"/><path d="M99.456,57.511c-.59-.146-1.2-.3-1.792-.5a.24.24,0,0,0-.08-.014l-.071,0a.286.286,0,0,1-.065,0l-.034.247-.044-.264a.408.408,0,0,0-.2.028,27.117,27.117,0,0,0-3.915.3c-.195.026-.43.045-.683.066-.218.018-.452.037-.686.062a.25.25,0,0,0-.063.483l.344.13a15.711,15.711,0,0,0,5.183,1.33h.081a5.806,5.806,0,0,0,3.447-1.076.25.25,0,0,0-.072-.444C100.354,57.732,99.9,57.622,99.456,57.511Z"/><path d="M63.673,55.994l-.64-.171c-4.823-1.287-9.811-2.618-14.661-4.139a.466.466,0,0,1-.154-.08.255.255,0,0,0-.237-.054,6.665,6.665,0,0,0-2.64,1.289.3.3,0,0,0-.007.376c.493,1.175,2.211,1.652,3.727,2.073a12.4,12.4,0,0,1,1.426.452c1.111.474,2.265.872,3.381,1.258,1.017.35,2.068.713,3.07,1.128a24.731,24.731,0,0,0,4.348,1.308.238.238,0,0,0,.053.005.251.251,0,0,0,.238-.172,8.223,8.223,0,0,1,.672-1.449,3.235,3.235,0,0,1,.807-1,2.2,2.2,0,0,1,.445-.254c.075-.036.15-.072.225-.111a.25.25,0,0,0,.13-.249A.248.248,0,0,0,63.673,55.994Z"/><path d="M109.191,34.829h1.782a.249.249,0,0,0,.154-.054.455.455,0,0,1,.541.008.255.255,0,0,0,.145.046h.529a.25.25,0,0,0,.225-.141l.09-.193c.243-.529.421-.854.839-.9a12.23,12.23,0,0,1,2.5.09l.458.045.107.018a.252.252,0,0,0,.276-.148l.1-.226c.1-.245.208-.491.315-.733a.251.251,0,0,0-.018-.236.247.247,0,0,0-.206-.115l-.783-.019a19.117,19.117,0,0,0-5.745.422.272.272,0,0,0-.1.059c-.009.01-.045.061-.054.073a19.414,19.414,0,0,1-1.337,1.585.25.25,0,0,0,.183.419Z"/><path d="M114.959,37.271c.319-.77.639-1.539.966-2.3a.252.252,0,0,0-.025-.242.239.239,0,0,0-.219-.106c-.232.013-.464.02-.7.02a.25.25,0,0,0-.229.149,53.164,53.164,0,0,1-2.636,4.961c-.616,1.065-1.253,2.167-1.83,3.285a67.688,67.688,0,0,0-3.8,9.086.689.689,0,0,1-.059.087.248.248,0,0,0,0,.283,1.33,1.33,0,0,1,.181.84.251.251,0,0,0,.246.267c.417.006.835.013,1.258.033h.012a.248.248,0,0,0,.25-.263.376.376,0,0,1,.04-.211,47.526,47.526,0,0,0,2.333-5.751,52.712,52.712,0,0,1,2.028-5.124C113.559,40.641,114.271,38.928,114.959,37.271Z"/><path d="M55.538,75a.256.256,0,0,0,.13.146.249.249,0,0,0,.107.024.241.241,0,0,0,.088-.016c.539-.2,1.084-.383,1.637-.565a.253.253,0,0,0,.168-.192.248.248,0,0,0-.087-.238l-.455-.367a.252.252,0,0,0-.3-.014q-.6.4-1.232.787a.249.249,0,0,0-.051.385c-.02-.021-.03-.041-.027-.023S55.535,74.994,55.538,75Z"/><path d="M24.342,74.4a.252.252,0,0,0-.29.159,7.3,7.3,0,0,0-.3.989.322.322,0,0,0,.09.256.253.253,0,0,0,.138.076,1.473,1.473,0,0,0,.265.03h0l.666.028a2.308,2.308,0,0,0,.235-.009.247.247,0,0,0,.222-.213l.04-.3c.024-.18.046-.361.08-.541a.251.251,0,0,0-.211-.294C24.953,74.528,24.64,74.461,24.342,74.4Z"/><path d="M67.151,68.53a.252.252,0,0,0,.151.051.24.24,0,0,0,.075-.012l.685-.217c.967-.308,1.933-.615,2.906-.9l.093-.026c.143-.04.289-.08.43-.125a.25.25,0,0,0,.157-.149,2.316,2.316,0,0,0,.185-1.058c-.025-.334-.061-.667-.095-1-.054-.529-.111-1.075-.128-1.6a.245.245,0,0,0-.089-.183.249.249,0,0,0-.2-.057,25.717,25.717,0,0,0-4.165.965h0l-.013,0a.251.251,0,0,0-.155.348,1.125,1.125,0,0,1,.111.5c0,1.01-.016,2.043-.053,3.252A.25.25,0,0,0,67.151,68.53Z"/><path d="M71.112,61.918l-4.574-.8a.348.348,0,0,0-.26.111.369.369,0,0,1-.07.065A51.824,51.824,0,0,1,61.353,63.9a.25.25,0,0,0,.108.475h.013l.391-.021a26.216,26.216,0,0,0,5.547-1.086,34.03,34.03,0,0,1,3.695-.861.25.25,0,0,0,0-.493Z"/><path d="M65.972,64.558a31.971,31.971,0,0,1-5.247.773c-.476.046-.954.073-1.43.093a.251.251,0,0,0-.239.25,19.215,19.215,0,0,1-.569,4.728.253.253,0,0,0,.057.231.249.249,0,0,0,.185.082.256.256,0,0,0,.039,0c.173-.027.345-.053.526-.074A43.96,43.96,0,0,0,66,69a.25.25,0,0,0,.176-.229c.051-1.322.075-2.533.075-3.7a.854.854,0,0,1,.019-.158l.011-.077a.245.245,0,0,0-.08-.222A.254.254,0,0,0,65.972,64.558Z"/><path d="M31,74.391a10.772,10.772,0,0,0,1.911-.156.251.251,0,0,0,.161-.1c.138-.2.271-.362.42-.556a19.133,19.133,0,0,0,1.43-4.934.249.249,0,0,0-.3-.291c-.656.141-1.243.284-1.8.436a16.522,16.522,0,0,1-4.292.355c-.842,0-1.708,0-2.535.065l-.494.046a10.2,10.2,0,0,1-3.042,0,.249.249,0,0,0-.282.143,5.559,5.559,0,0,1-.369.693c-.6.943-.85,1.293-1.3,1.516a.249.249,0,0,0-.014.441,11.676,11.676,0,0,0,4.229,1.6c.474.068.967.147,1.471.229A30.892,30.892,0,0,0,31,74.391Z"/><path d="M51.972,50.749c-.421.064-.889.136-1.381.218a.251.251,0,0,0-.207.231.247.247,0,0,0,.177.255c3.8,1.142,7.687,2.179,11.449,3.181,3.43.915,6.979,1.861,10.451,2.885,1.739.514,3.527,1,5.258,1.467,2.3.625,4.687,1.271,6.975,1.993a31.13,31.13,0,0,0,4.026.9,24.305,24.305,0,0,1,4.934,1.236.254.254,0,0,0,.18,0,12.944,12.944,0,0,1,3.774-.532l.36-.016c.928-.037,1.855-.064,2.783-.091.738-.022,1.477-.043,2.215-.07a.252.252,0,0,0,.24-.223.249.249,0,0,0-.187-.269c-.93-.238-1.865-.45-2.8-.662a50.448,50.448,0,0,1-5.765-1.548c-1.8-.64-3.642-1.36-5.418-2.056a102.133,102.133,0,0,0-9.77-3.451c-1.65-.459-3.331-.844-4.958-1.217-1.432-.328-2.914-.667-4.362-1.054-.828-.22-1.654-.493-2.453-.756a18.776,18.776,0,0,0-5.9-1.258,47.177,47.177,0,0,0-8.5.654C52.792,50.624,52.408,50.682,51.972,50.749Z"/><path d="M22.828,68.454a7.875,7.875,0,0,0,1.558.139,24.173,24.173,0,0,0,2.667-.2,21.691,21.691,0,0,1,2.4-.189,25.135,25.135,0,0,0,3.994-.426c.506-.082,1.013-.164,1.522-.234a.252.252,0,0,0,.209-.189c.051-.213.109-.438.17-.671.133-.518.285-1.105.395-1.685a.251.251,0,0,0-.062-.216.247.247,0,0,0-.209-.079l-1,.094c-3.488.374-9.952.828-11.212.914a.251.251,0,0,0-.232.231,11.137,11.137,0,0,1-.4,2.2.248.248,0,0,0,.026.2A.254.254,0,0,0,22.828,68.454Z"/><path d="M7.482,34.721a.262.262,0,0,0,.061-.008.107.107,0,0,0,.027-.006.25.25,0,0,0,.244-.25.271.271,0,0,0-.077-.184l0,0a.29.29,0,0,0-.055-.043.274.274,0,0,0-.255-.007.25.25,0,0,0,.06.493Z"/><path d="M49.275,46.59c-.781.052-1.518.1-2.167.1a36.493,36.493,0,0,0-3.824.294c-1.078.122-2.193.248-3.291.282a.251.251,0,0,0-.107.473c.353.182.7.369,1.034.549.248.134.488.264.721.385a24.312,24.312,0,0,0,2.423,1.045,22.084,22.084,0,0,1,2.513,1.1.347.347,0,0,1,.142.125.249.249,0,0,0,.207.111.256.256,0,0,0,.081-.014,25.115,25.115,0,0,1,3.325-.812l.377-.074a58.318,58.318,0,0,1,7.544-.95.252.252,0,0,0,.208-.142.249.249,0,0,0-.021-.251A4.586,4.586,0,0,0,57.215,47.6a.217.217,0,0,0-.069-.032.451.451,0,0,1-.2-.126.223.223,0,0,0-.061-.049C54.8,46.225,51.862,46.418,49.275,46.59Z"/><path d="M9.116,34.233a.2.2,0,0,0,.034,0c.672-.091,1.341-.188,2.011-.286l1.114-.161a.245.245,0,0,0,.1-.034.42.42,0,0,1,.346-.046.3.3,0,0,0,.1,0q3.66-.528,7.313-1.07a.25.25,0,0,0-.017-.5c-.094-.008-.182-.015-.271-.015A32.993,32.993,0,0,0,9.168,33.644c-.045.017-.088.033-.127.044a.252.252,0,0,0-.182.241.657.657,0,0,0,.02.133A.25.25,0,0,0,9.116,34.233Z"/><path d="M14.537,34.478a.25.25,0,0,0,.108.263c.48.313.954.645,1.426.976.714.5,1.452,1.017,2.2,1.456a33.379,33.379,0,0,0,3.677,1.77A34.63,34.63,0,0,1,25.416,40.6c1.742,1,3.584,1.905,5.365,2.78,2.133,1.048,4.339,2.131,6.378,3.383a.252.252,0,0,0,.131.037l.122-.006.08.019.07.02a.267.267,0,0,0,.143-.006,9.992,9.992,0,0,1,3.023-.535c1.627-.056,3.274-.151,4.867-.244,2.49-.143,5.065-.292,7.619-.292l.049,0a.292.292,0,0,0,.334-.2.253.253,0,0,0-.168-.278c-.626-.208-1.272-.384-1.9-.555a22.629,22.629,0,0,1-2.172-.667c-4.519-1.742-7.87-3.167-10.862-4.62-2.284-1.109-4.723-2.08-7.081-3.019l-.992-.4c-.975-.39-1.959-.881-3-1.4-1.164-.582-2.368-1.183-3.591-1.649a.248.248,0,0,0-.127-.013q-4.47.681-8.962,1.334A.252.252,0,0,0,14.537,34.478Z"/><path d="M69.129,73.11a7.777,7.777,0,0,0,.7,1.3,1.4,1.4,0,0,0,1.152.638,1.746,1.746,0,0,0,1.006-.355,2.164,2.164,0,0,0,.8-2.857c-.176-.247-.352-.489-.524-.728l-.122-.168a.251.251,0,0,0-.281-.091c-1.021.336-2.042.725-3,1.095a.26.26,0,0,0-.16.24.257.257,0,0,0,.031.122C68.879,72.563,69,72.836,69.129,73.11Z"/><path d="M81.306,63.861a.251.251,0,0,0-.2-.22c-.467-.1-1.086-.231-1.713-.328-1.591-.257-3.177-.528-4.761-.8a.447.447,0,0,0-.208.051,5.931,5.931,0,0,1-1.732.681.25.25,0,0,0-.209.269c.032.337.083.679.134,1.021a7.3,7.3,0,0,1,.125,2.039.251.251,0,0,0,.085.223.248.248,0,0,0,.163.061.261.261,0,0,0,.069-.009,69.635,69.635,0,0,0,8.093-2.735A.25.25,0,0,0,81.306,63.861Z"/><path d="M92.4,63.535a43.309,43.309,0,0,0-7.134-1.623c-.73-.124-1.444-.245-2.125-.373a58.3,58.3,0,0,1-7.4-2.092c-1.461-.482-2.97-.981-4.454-1.392q-3.07-.855-6.148-1.668a.249.249,0,0,0-.2.032.255.255,0,0,0-.111.17.3.3,0,0,1-.12.216,3.563,3.563,0,0,1-.592.388,2.443,2.443,0,0,0-1.043.9c-.056.1-.12.213-.184.324a6.444,6.444,0,0,0-.481.941.255.255,0,0,0,.017.211.246.246,0,0,0,.172.123c1.932.358,3.866.6,5.736.841l.647.083A96.871,96.871,0,0,1,81.7,62.981a53.516,53.516,0,0,0,6.7,1.209c1.11.151,2.256.308,3.375.5l.035,0a.276.276,0,0,0,.243-.171h0a2.657,2.657,0,0,1,.434-.571.25.25,0,0,0,.067-.232A.247.247,0,0,0,92.4,63.535Z"/><path d="M20.812,83.306l-.941-.006c-4.151-.021-8.856-.046-12.665-1.76a.25.25,0,0,0-.268.416,8.973,8.973,0,0,0,4.4,2.122,22.357,22.357,0,0,0,4.765.477,56.8,56.8,0,0,0,7.774-.714c.657-.091,1.314-.182,1.972-.267,3.427-.449,7.063-1,11.793-1.783a.251.251,0,0,0,.169-.383l-.376-.58c-.076-.116-.151-.232-.226-.352a.247.247,0,0,0-.263-.112c-1.512.311-3.064.695-4.565,1.066A47.429,47.429,0,0,1,20.812,83.306Z"/><path d="M92.827,83.547a.246.246,0,0,0,.116-.168.243.243,0,0,0-.047-.2.509.509,0,0,0-.052-.06c-.008-.007-.054-.055-.062-.061a4.777,4.777,0,0,1-.536-.478,1.817,1.817,0,0,1-.484-1.244.249.249,0,0,0-.335-.218c-.948.348-1.916.675-2.875.971a.251.251,0,0,0-.156.138.256.256,0,0,0,0,.208,7.462,7.462,0,0,0,1.292,1.819,1.142,1.142,0,0,0,.8.306,3.786,3.786,0,0,0,1.752-.687c.1-.06.193-.115.241-.146a1.812,1.812,0,0,0,.309-.16l-.092-.236h0Z"/><path d="M111.332,65.227a.227.227,0,0,0-.021-.1h0c-.1-.851-1.292-1.508-3.876-2.132a.26.26,0,0,0-.13,0l-.08.028a.405.405,0,0,1-.079.024c-2.641.216-4.989.325-7.177.331q-.378,0-.848-.011c-1.9-.042-4.771-.095-6,1.171a.25.25,0,0,0,.127.419l.074.016c.42.088.847.178,1.239.269l.14-.2h0l-.082.239a.268.268,0,0,0,.068.021c.2.034.4.072.6.11a6.056,6.056,0,0,0,2.723.1,22.319,22.319,0,0,1,2.305-.476.249.249,0,0,0,.121-.053.431.431,0,0,1,.461.011.462.462,0,0,1,.24.476v.008a.249.249,0,0,0,.211.283.219.219,0,0,0,.036,0,.243.243,0,0,0,.086-.015c.2-.024,1.263-.033,2.384-.044,2.377-.022,5.632-.051,7.259-.22A.251.251,0,0,0,111.332,65.227Z"/><path d="M111.326,54.569c-.867,0-1.736-.056-2.576-.109a19.105,19.105,0,0,0-5.955.265c-.349.088-.753.163-1.183.242a10.627,10.627,0,0,0-3.217.95.25.25,0,0,0,.046.455c2.54.821,5.155,1.528,7.683,2.211,2.75.744,5.594,1.513,8.36,2.443a.729.729,0,0,0,.1.054.334.334,0,0,0,.2.006c.185,0,.4.007.646.015.294.009.621.02.955.02a9.1,9.1,0,0,0,1.169-.064c.277-.036.537-.086.792-.136a6.363,6.363,0,0,1,1.262-.16,8.15,8.15,0,0,0,1.692-.222.25.25,0,0,0,.059-.469c-.592-.293-1.19-.628-1.768-.952-.6-.336-1.221-.683-1.819-.974-2.263-1.086-4.42-2.389-6.322-3.539A.25.25,0,0,0,111.326,54.569Z"/><path d="M33.584,95.983A47.431,47.431,0,0,0,45.871,94.64c1.667-.434,3.372-.918,5.021-1.386A106.782,106.782,0,0,1,62.133,90.5a1.682,1.682,0,0,0,1.493-1.15.249.249,0,0,0-.28-.332c-3,.562-6.026,1.281-8.952,1.977-3.813.906-7.755,1.842-11.666,2.44a35.329,35.329,0,0,1-11.465.211c-.3-.054-.612-.106-.94-.162a20.337,20.337,0,0,1-5.792-1.576.25.25,0,0,0-.318.367C26.66,95.7,30.185,95.983,33.584,95.983Z"/><path d="M35.427,93.021a41.526,41.526,0,0,0,10.492-.943c5.184-1.355,12.019-3.057,18.947-4.2l.071,0a.237.237,0,0,0,.091-.017,62.745,62.745,0,0,1,6.406-2.194c1.963-.542,4.006-.987,5.981-1.418a64.132,64.132,0,0,0,10.593-2.955,19.7,19.7,0,0,1,1.914-.621c.569-.164,1.158-.333,1.713-.542a.245.245,0,0,0,.139-.3.277.277,0,0,0-.3-.184c-.023-.019-.138-.147-.151-.771a.239.239,0,0,0-.012-.07,2.524,2.524,0,0,0-2.741-1.944,20.007,20.007,0,0,0-5.745,1.169c-.851.257-1.656.5-2.413.681-3.4.813-7.151,1.581-11.459,2.349a.246.246,0,0,0-.075.025,2.828,2.828,0,0,1-2.249.419.237.237,0,0,0-.127-.011c-4.631.78-9.359,1.475-13.93,2.147q-3.733.547-7.464,1.111a.251.251,0,0,0-.209.212,1.225,1.225,0,0,0-.008.144c-.2,1.251-2.776,1.315-3.29,1.315a.372.372,0,0,1-.377-.277.244.244,0,0,0-.053-.094c-.041-.046-.079-.094-.117-.142l-.065-.08a.247.247,0,0,0-.256-.083c-1.228.319-2.471.7-3.674,1.068A50.74,50.74,0,0,1,30.65,88.48c-2.094.343-4.135.79-5.678,1.141l-.207.046c-.384.086-.686.154-.917.212a.251.251,0,0,0-.181.178.254.254,0,0,0,.066.244C26.514,93.021,33.223,93.021,35.427,93.021Z"/><path d="M45.468,51.25c-.276-.1-.557-.185-.837-.27a9.658,9.658,0,0,1-1.221-.427c-.327-.147-.647-.314-.961-.481a.248.248,0,0,0-.32.074.513.513,0,0,1-.149.14c-.5.319-1.022.618-1.529.906-.706.4-1.435.817-2.119,1.3A9.657,9.657,0,0,0,36.7,54.081c-.208.237-.417.476-.646.716a5.424,5.424,0,0,0-1.45,2.135.25.25,0,0,0,.107.273l.584.379a15.339,15.339,0,0,0,1.68.884A10.6,10.6,0,0,1,39.134,59.7a10.109,10.109,0,0,0,3.955,1.567,1.309,1.309,0,0,0,.331-.038.663.663,0,0,0,.479-.4,29.981,29.981,0,0,1,1.356-2.814c.426-.81.865-1.646,1.231-2.5a.251.251,0,0,0-.11-.318,4.551,4.551,0,0,1-1.7-1.452.25.25,0,0,0-.184-.115.518.518,0,0,1-.389-.259.382.382,0,0,1,.02-.377A3.47,3.47,0,0,1,45.506,51.7a.247.247,0,0,0,.125-.238A.251.251,0,0,0,45.468,51.25Z"/><path d="M18.271,82.562q1.837,0,3.891-.132A59.119,59.119,0,0,0,32.2,80.586c1.334-.324,2.713-.66,4.053-.945a.254.254,0,0,0,.18-.151.251.251,0,0,0-.024-.233,17.893,17.893,0,0,0-1.2-1.608,9.4,9.4,0,0,1-.64-.892,5.09,5.09,0,0,0-1.471-1.639.247.247,0,0,0-.171-.035,21.164,21.164,0,0,1-6.3-.3.243.243,0,0,0-.283.2c-.022.126-.038.256-.054.386-.062.5-.121.977-.5,1.221a2.673,2.673,0,0,1-1.558.181l-.131-.009a2.8,2.8,0,0,1-.952-.193.25.25,0,0,0-.166-.019c-.882.2-1.848.386-2.953.566a.249.249,0,0,0-.2.311,1.373,1.373,0,0,1-.472,1.668c-.248.188-.394.136-.445.117-.371-.134-.7-.88-.855-1.56a.263.263,0,0,0-.265-.193,62.056,62.056,0,0,0-7.141,1.062l-.173.038A35.748,35.748,0,0,0,6.343,79.65a.25.25,0,0,0-.038.448C9.069,81.749,13.005,82.562,18.271,82.562Z"/><path d="M71.3,70.146a.248.248,0,0,0,.15-.142.244.244,0,0,0-.008-.206,4.75,4.75,0,0,1-.274-.7,1.185,1.185,0,0,1-.038-.452.25.25,0,0,0-.311-.263c-1.537.391-3.061.827-4.535,1.247-2.394.685-4.871,1.392-7.407,1.907a.25.25,0,0,0-.107.44c.631.509,1.27,1.011,1.915,1.514a.253.253,0,0,0,.153.053.258.258,0,0,0,.12-.031.5.5,0,0,1,.164-.06A30.944,30.944,0,0,0,68.3,71.276C69.278,70.891,70.291,70.491,71.3,70.146Z"/><path d="M19.009,71.135a.242.242,0,0,0,.07-.01c2.469-.72,3.127-4.012,3.127-5.844,0-2.4-1.5-4.112-4.366-4.977,0,0-.051-.029-.057-.031a.246.246,0,0,0-.221,0,3.978,3.978,0,0,0-1.308,1,.251.251,0,0,0,.169.409.348.348,0,0,1,.247.123.99.99,0,0,1,.112.143l.071.1a.24.24,0,0,0,.106.08,7.345,7.345,0,0,1,2.176,1.187,2.659,2.659,0,0,0,.461.292,2.555,2.555,0,0,1,.376.234.95.95,0,0,1,.223.67,1.856,1.856,0,0,1-.6,1.585,1.886,1.886,0,0,1-1.483.041,5.835,5.835,0,0,0-.66-.119.24.24,0,0,0-.252.142,1.951,1.951,0,0,1-.09.178.717.717,0,0,1-.37.271.251.251,0,0,0-.154.292,35.3,35.3,0,0,0,1.072,3.44.251.251,0,0,0,.117.137c.376.2.744.409,1.1.624A.246.246,0,0,0,19.009,71.135Z"/><path d="M14.066,61.656a.249.249,0,0,0,.241.182.307.307,0,0,0,.042,0c.012,0,.106-.029.118-.033a.251.251,0,0,0,.2-.3c-.2-.855-.446-1.716-.685-2.549a34.112,34.112,0,0,1-.978-4.028,21.476,21.476,0,0,0-.639-2.569l-.185-.637a3.485,3.485,0,0,0-.4-.7.265.265,0,0,0-.287-.1.247.247,0,0,0-.218.034,1.092,1.092,0,0,1-.127.07.251.251,0,0,0-.125.291c.455,1.583.924,3.16,1.393,4.735C12.98,57.916,13.536,59.784,14.066,61.656Z"/><path d="M12.963,65.809c.62.039,1.334.085,2.042.085a11.39,11.39,0,0,0,1.3-.066.251.251,0,0,0,.22-.263.246.246,0,0,0-.069-.158,7.89,7.89,0,0,1,.054-1.066c.015-.157.023-.272.022-.286a2.241,2.241,0,0,0-.428-1.6.259.259,0,0,0-.209-.084A7.471,7.471,0,0,0,12.6,63.7a4.262,4.262,0,0,0-1.462,1.523.241.241,0,0,0-.025.108C11.109,65.425,11.109,65.68,12.963,65.809Z"/><path d="M12.71,34.619a.442.442,0,0,0-.2-.016c-.83.12-1.659.239-2.489.352a.25.25,0,0,0-.094.462l.265.159c.319.19.639.382.951.576.537.339,1.053.688,1.572,1.038l.243.164a.246.246,0,0,0,.14.043.25.25,0,0,0,.162-.06c.111-.094.225-.181.341-.268a6.271,6.271,0,0,0,.515-.423,2.877,2.877,0,0,1,.561-.412.249.249,0,0,0,.018-.425A16.621,16.621,0,0,0,12.71,34.619Z"/><path d="M41.082,49.382l-.115-.056c-.067-.033-.133-.066-.208-.1a12.459,12.459,0,0,1-1.309-.653,9.381,9.381,0,0,0-1.971-.888.28.28,0,0,0-.189.016.54.54,0,0,0-.095.021c-3.07,1.251-4.683,4.972-5.629,7.663a.25.25,0,0,0,.173.325,7.318,7.318,0,0,1,1.789.755.254.254,0,0,0,.123.032.245.245,0,0,0,.085-.015.253.253,0,0,0,.15-.147,5.281,5.281,0,0,1,1.007-1.525c.147-.174.3-.353.445-.533a15.013,15.013,0,0,1,1.736-1.872,18.754,18.754,0,0,1,2.946-1.949c.363-.209.727-.418,1.086-.636a.249.249,0,0,0-.024-.44Z"/><path d="M26.23,41.919q-1.073-.528-2.138-1.056c-.071-.031-.138-.063-.208-.1a.25.25,0,0,0-.251.009l-.319.2A4.886,4.886,0,0,0,21.438,42.6a.25.25,0,0,0,.088.33c.977.6,1.961,1.2,2.932,1.785a51.864,51.864,0,0,0,9.331,4.515.279.279,0,0,0,.08.013.248.248,0,0,0,.178-.075A9.755,9.755,0,0,1,36.1,47.555a.25.25,0,0,0,0-.431C32.966,45.236,29.542,43.55,26.23,41.919Z"/><path d="M22.42,40.071l-.686-.314a44.782,44.782,0,0,1-4.66-2.348c-.37-.228-.738-.47-1.108-.725a.249.249,0,0,0-.3.009.408.408,0,0,1-.137.082,2.208,2.208,0,0,0-.671.4,3.073,3.073,0,0,1-.325.235,4.507,4.507,0,0,0-.446.324.248.248,0,0,0-.089.2.251.251,0,0,0,.108.194l.215.149c.322.221.645.444.975.667,1.606,1.066,3.313,2.164,5.074,3.263a.251.251,0,0,0,.133.038.265.265,0,0,0,.063-.008.252.252,0,0,0,.157-.123,4.9,4.9,0,0,1,1.723-1.61.25.25,0,0,0-.03-.437Z"/><path d="M48.662,78.043c.04-.027.08-.055.122-.081l.006,0q.968-.623,1.942-1.239.948-.6,1.893-1.206a.25.25,0,0,0-.223-.445c-1.643.611-3.2,1.243-4.629,1.875a27.722,27.722,0,0,1-5.05,1.511c-.679.157-1.357.314-2.027.489a.25.25,0,0,0-.174.163.254.254,0,0,0,.043.236l.167.208c.116.144.232.289.351.432a.247.247,0,0,0,.191.09c.049,0,.086-.011.069-.014.071,0,.142,0,.214,0a18.482,18.482,0,0,0,6.97-1.931C48.573,78.1,48.618,78.073,48.662,78.043Z"/><path d="M55.49,72.946a.25.25,0,0,0-.157-.24,4.869,4.869,0,0,0-.539-.191.368.368,0,0,1-.189-.124.249.249,0,0,0-.245-.083,13.634,13.634,0,0,0-1.389.38,12.471,12.471,0,0,1-2.968.5,12.949,12.949,0,0,0-3.04.513,15.217,15.217,0,0,1-2.954.633.246.246,0,0,0-.147.071,1.215,1.215,0,0,1-.189.16,2.761,2.761,0,0,1-1.332.238l-.429.009a3.775,3.775,0,0,1-1.148-.084.83.83,0,0,1-.281-.158.249.249,0,0,0-.155-.055c-.788-.007-1.578-.019-2.361-.032l-.131,0a.206.206,0,0,0-.22.124.249.249,0,0,0,0,.253l.28.477c.462.79.941,1.606,1.465,2.376.052.077.108.152.163.226s.106.142.155.214a.251.251,0,0,0,.207.11.229.229,0,0,0,.068-.01c.766-.217,1.526-.422,2.283-.626,2.015-.544,4.1-1.106,6.139-1.867.716-.269,1.43-.546,2.144-.823,1.563-.607,3.181-1.235,4.8-1.762A.251.251,0,0,0,55.49,72.946Z"/><path d="M60.429,75.39a8.622,8.622,0,0,0,1.483,1.217,9.816,9.816,0,0,1,1.179.917,31.98,31.98,0,0,0,2.732,2.241.253.253,0,0,0,.151.05.327.327,0,0,1,.308.2.253.253,0,0,0,.073.083,2.427,2.427,0,0,0,1.029.465.238.238,0,0,0,.039,0l.031,0,.325-.048a.247.247,0,0,0,.209-.176.25.25,0,0,0-.078-.263,12.346,12.346,0,0,0-1.535-1.045l-.333-.2a16.9,16.9,0,0,1-2.126-1.62c-.4-.339-.812-.69-1.247-1.021-1.712-1.3-3.415-2.7-5.061-4.045l-.292-.239a.233.233,0,0,0-.185-.055c-.167.018-.328.042-.552.076a.249.249,0,0,0-.2.193.256.256,0,0,0,.1.263,5.585,5.585,0,0,1,.478.348.242.242,0,0,0,.091.048.37.37,0,0,1,.2.166.269.269,0,0,0,.05.057l.055.045a.766.766,0,0,1,.074.063,13.824,13.824,0,0,0,1.281.928A9.106,9.106,0,0,1,60.429,75.39Z"/><path d="M17.4,64.946a.249.249,0,0,0,.206.249,5.124,5.124,0,0,1,1.064.336l.286.113h0a.37.37,0,0,0,.125.022.327.327,0,0,0,.177-.052.551.551,0,0,0,.184-.463,1.8,1.8,0,0,0-.14-.707A6.279,6.279,0,0,0,18,63.5a1.211,1.211,0,0,0-.172-.088c-.027-.012-.054-.023-.079-.037a.25.25,0,0,0-.371.219c0,.028,0,.055.007.122,0,.148,0,.313.01.488C17.4,64.438,17.407,64.691,17.4,64.946Z"/><path d="M36.544,77.954a20.714,20.714,0,0,0,1.3,1.955c.618.789,1.186,1.65,1.736,2.482a31.715,31.715,0,0,0,2.2,3.055.252.252,0,0,0,.191.088h.014a5.715,5.715,0,0,0,1.458-.256l.095-.036a3.278,3.278,0,0,1,.309-.111.259.259,0,0,0,.181-.373,1.928,1.928,0,0,0-.268-.467c-.09-.125-.18-.243-.278-.368a.226.226,0,0,0-.208-.095.333.333,0,0,1-.253-.136c-.508-.639-1.058-1.276-1.59-1.893a26.335,26.335,0,0,1-3.32-4.434l-.206-.379a19.324,19.324,0,0,0-1.83-2.949,1.241,1.241,0,0,0-.9-.554,1.218,1.218,0,0,0-.921.486.239.239,0,0,0-.042.063l-.037.074a.368.368,0,0,1-.138.157.246.246,0,0,0-.06.051.308.308,0,0,0-.073.183.249.249,0,0,0,.1.2A11.659,11.659,0,0,1,36.544,77.954Z"/><path d="M27.92,56.187A57.621,57.621,0,0,0,24.391,45.8c-.263-.586-1.125-.078-.863.505a56.339,56.339,0,0,1,3.428,10.152C27.1,57.079,28.068,56.814,27.92,56.187Z"/><path d="M47.677,78.843a9.033,9.033,0,0,0-4.629,2.968c-.408.492.3,1.2.707.707a8.134,8.134,0,0,1,4.188-2.711A.5.5,0,0,0,47.677,78.843Z"/><path d="M18.591,74.928a61.719,61.719,0,0,1-2.379-7.6c-.124-.63-1.088-.363-.964.266a61.66,61.66,0,0,0,2.378,7.6C17.831,75.8,18.8,75.54,18.591,74.928Z"/></g></svg>