<svg xmlns="http://www.w3.org/2000/svg" x="0" y="0" viewBox="0 0 128 160"><g><path d="M91.354,44.98a23.779,23.779,0,0,0,.515-4.1c.338-2.243.389-4.412.515-6.667.206-3.686.973-7.314,1.242-10.988a1.676,1.676,0,0,1-.463.108.827.827,0,0,0-.258.063.577.577,0,0,1-.074.235c-2.61,4.733-3.652,10.164-5.386,15.275a.52.52,0,0,1,.126.366,18.227,18.227,0,0,1-1.013,4.167c-.423,1.608-.853,3.262-1.4,4.841,1.036-.469,2.037-1.4,2.976-1.871A29.5,29.5,0,0,1,91.354,44.98Z"/><path d="M18.018,91.3c.137-.023.275-.046.412-.074.315-.081.618-.218.927-.286.172-.041.344-.081.515-.127-.023-.034-.046-.074-.069-.108-.085-.178-.188-.355-.263-.544a1.6,1.6,0,0,1-.16.017c-.355.063-.721.058-1.076.126-.195.035-.389-.086-.343.115a1.566,1.566,0,0,1,.046.286A5.344,5.344,0,0,1,18.018,91.3Z"/><path d="M15.78,62.235a.617.617,0,0,1-.1-.069l-.257.052a39.078,39.078,0,0,0,6.238,4.79c3.136,2.209,6.8,3.9,9.826,6.2a.707.707,0,0,1,.092.086c.406-.217.813-.429,1.225-.641a67.856,67.856,0,0,1-8-4.853c-1.632-1.15-3.44-2.026-5.151-3.045C18.384,63.992,17.142,62.779,15.78,62.235Z"/><path d="M19.592,63.38c1.671,1,3.537,1.831,5.122,2.959a73.587,73.587,0,0,0,9.357,5.677c1.878-.916,3.783-1.792,5.655-2.736-4.716-1.4-9.02-3.485-13.581-5.322-2.427-.979-4.819-2.267-7.309-3.045a7.677,7.677,0,0,1-.91-.349.539.539,0,0,1-.177.183,5.185,5.185,0,0,0-.744.578.825.825,0,0,1-.223.143C17.772,62.023,18.6,62.784,19.592,63.38Z"/><path d="M83.416,48.734a.5.5,0,0,1,.366.017,46.01,46.01,0,0,0,1.357-4.435c-.132.252-.269.509-.412.761A17.951,17.951,0,0,1,81.5,49.232,12.635,12.635,0,0,0,83.416,48.734Z"/><path d="M73.36,43.6v-.006c.006,0,.006.006.012.012.612.469,1.316.881,1.917,1.362a38.841,38.841,0,0,0,5.042,3.525A10.545,10.545,0,0,0,82.02,46.7c.194-.257.377-.5.555-.749-1.414-.378-2.839-1.288-4.127-1.746-1.768-.641-3.411-1.723-5.236-2.232-.252.115-.481.2-.738.3C71.861,42.513,73.217,43.5,73.36,43.6Z"/><path d="M27.278,91.68a.95.95,0,0,1,.114-.051,3.544,3.544,0,0,0,.487-.281,2.683,2.683,0,0,1,.578-.211,7.173,7.173,0,0,0-.841-5.4,23.521,23.521,0,0,1-1.511-2.2.844.844,0,0,0-.206.149c-.155.143-.309.275-.475.4a5.152,5.152,0,0,1-.5.332A9.417,9.417,0,0,1,26.86,87.9,8.175,8.175,0,0,1,27.278,91.68Z"/><path d="M11.608,57.754a3.834,3.834,0,0,0,1.122-.481.583.583,0,0,1-.04-.172c-.006-1.23-.235-2.483-.332-3.72,0-.028-.006-.063-.006-.091-.16.566-.326,1.133-.521,1.682a23.025,23.025,0,0,0-1.041,2.879,1.773,1.773,0,0,1,.269-.057A3.454,3.454,0,0,0,11.608,57.754Z"/><path d="M84.641,55.854a7.943,7.943,0,0,0-.573-1.3,6.625,6.625,0,0,0-.509-.779c-.526-.7-.727-.91-1.517-.275a6.551,6.551,0,0,1,1.929,2.713A2.6,2.6,0,0,0,84.641,55.854Z"/><path d="M21.493,98.805a.377.377,0,0,0-.373.016l-.332.206a.375.375,0,0,0-.175.317.379.379,0,0,0,.008.073c.007.181.023.363.04.545a.375.375,0,0,0,.231.313.39.39,0,0,0,.142.028.377.377,0,0,0,.242-.089,1.922,1.922,0,0,0,.242-.25,1.246,1.246,0,0,0,.177-.844A.376.376,0,0,0,21.493,98.805Z"/><path d="M93.651,46.275a2.148,2.148,0,0,1,.289.6,1.474,1.474,0,0,1,.068.322.25.25,0,0,0,.151.2.234.234,0,0,0,.1.02.253.253,0,0,0,.149-.049l.069-.057a.243.243,0,0,0,.048-.048c.041-.054.082-.109.121-.164a1.667,1.667,0,0,1,.26-.313,1.358,1.358,0,0,1,.127-.089.243.243,0,0,0,.05-.041l.134-.146c.115-.126.23-.253.354-.365a.249.249,0,0,0,.064-.28.241.241,0,0,0-.242-.156,5.266,5.266,0,0,0-.693.1,3.539,3.539,0,0,1-.556.076h-.286a.251.251,0,0,0-.2.395Z"/><path d="M18.691,102.364a.545.545,0,0,0,0,.1c-.082.1-.158.2-.242.3a.526.526,0,0,0-.082.147.819.819,0,0,0-.638.477,2.626,2.626,0,0,0-.166,1.211.376.376,0,0,0,.277.356.419.419,0,0,0,.1.013.376.376,0,0,0,.321-.181l.117-.213.008-.014.492.24a.5.5,0,0,0,.552-.066,1.1,1.1,0,0,0,.88,1,1.408,1.408,0,0,0,.233.021.559.559,0,0,0,.615-.486c.164-.824.353-2.224-.233-2.348a4.627,4.627,0,0,0-.642-.058.514.514,0,0,0-.6.524.494.494,0,0,1-.066.2.374.374,0,0,0-.141.253l-.019.151a.5.5,0,0,0-.071-.055l-.524-.256c.009-.02.016-.039.024-.059a.424.424,0,0,0,.276-.151,23.2,23.2,0,0,0,1.72-2.275c.277-.418-.182-.807-.567-.712a.367.367,0,0,0,.033-.129c-.012-.152-.031-.3-.055-.458a.374.374,0,0,0-.546-.271c-.348.185-.707.359-1.066.521a.376.376,0,0,0-.131.585,1.564,1.564,0,0,1,.25.409,1.469,1.469,0,0,1,.068.217c0,.006,0,.01,0,.016C18.816,101.706,18.758,102.035,18.691,102.364Z"/><path d="M11.665,89.471a.2.2,0,0,1,.017-.051,7.462,7.462,0,0,1-1.31-.618c-.395.675-.767,1.368-1.128,2.06a3.837,3.837,0,0,0,1.815.933C11.2,91,11.516,90.261,11.665,89.471Z"/><path d="M11.614,58.721a16.07,16.07,0,0,1,2.827,2.386,4.255,4.255,0,0,0,1.053-.074,1.024,1.024,0,0,1,.12-.006,1.366,1.366,0,0,1,.544-.52,3.02,3.02,0,0,0,.429-.332c.069-.058.143-.1.218-.155a15.224,15.224,0,0,0-3.6-1.6.482.482,0,0,1-.092-.04,5,5,0,0,1-.744.234A2.232,2.232,0,0,1,11.614,58.721Z"/><path d="M63.723,85.934a15.766,15.766,0,0,0-2.959,1.34,5.686,5.686,0,0,1,2.387,4.738,4.226,4.226,0,0,1-.43,1.815C65.5,93.4,68.313,91.4,68.685,88.59a.564.564,0,0,1-.1-.3,6.385,6.385,0,0,0-.561-2.037c-.149-.406-.556-.6-.853-.876a2.319,2.319,0,0,0-.853-.583A23.937,23.937,0,0,1,63.723,85.934Z"/><path d="M67.157,83v.4a6.638,6.638,0,0,0,2.369.355,2.354,2.354,0,0,0,2.043-1.431.778.778,0,0,1,.063-.114q-2.317.007-4.624.08A2.187,2.187,0,0,1,67.157,83Z"/><path d="M90.8,52.7c-1.368-.005-2.953-.1-2.444-1.951.183-.681.59-.756,1.162-.973C90.77,49.3,92,48.425,93.254,47.887a.406.406,0,0,1-.034-.074,1.412,1.412,0,0,1-.069-.407c0-.063,0-.1,0-.114a1.8,1.8,0,0,0-.258-.561c-.172-.2-.315-.406-.475-.6h-.074a.379.379,0,0,1-.315-.171,21.823,21.823,0,0,0-4.642,2.289A12.655,12.655,0,0,1,85.3,49.461c2.387,1.986,1.7,5.689.818,8.7A53.766,53.766,0,0,0,90.8,52.7Z"/><path d="M59.253,87.989a.573.573,0,0,1-.028.269,3.225,3.225,0,0,0,.32,2.993A3.7,3.7,0,0,0,61.983,92.3c.006-.1.023-.183.023-.292C61.954,90.112,61.1,88.373,59.253,87.989Z"/><path d="M71.283,87.606a.481.481,0,0,1,.115.126,1.06,1.06,0,0,0,.543-1.116,2.826,2.826,0,0,0-.423-1.248C71.014,85.82,70.779,87.2,71.283,87.606Z"/><path d="M62.109,82.432a8.931,8.931,0,0,1-1.8,3.119c-.464.469-1.328.464-1.866.922-.137.114-.269.228-.406.349a6.476,6.476,0,0,1,.818-.052,4,4,0,0,1,.658.057,8.162,8.162,0,0,1,2.748-1.516,26.924,26.924,0,0,0,3.513-1.523.455.455,0,0,1,.235-.148V83a1.983,1.983,0,0,0-.2-.675C64.576,82.357,63.345,82.4,62.109,82.432Z"/><path d="M108.7,78.758c-.59,0-1.179,0-1.774.005a6.136,6.136,0,0,1,.292,1.231v1.047a1.679,1.679,0,0,1-.012.178c1.637-.023,3.279-.075,4.922-.166,2.77-.155,6.049.44,8.356-1.351A70.463,70.463,0,0,0,108.7,78.758Z"/><path d="M52.992,81.333c5.82.2,11.584-.3,17.4-.286,7,.023,14.016.074,21.027.086,4.8.011,9.586.143,14.382.1a1.026,1.026,0,0,1-.017-.2c0-.263.005-.463.005-.658-3.914.012-7.9.28-11.881.28-4.326,0-8.6-.1-12.923-.1-8.378,0-24.254-.315-27.116-.372C53.5,80.669,53.169,81.1,52.992,81.333Z"/><path d="M70.321,84.75a5.561,5.561,0,0,1-1.922.12,2.215,2.215,0,0,1,.492.561c.229.406.274.87.492,1.27a3.055,3.055,0,0,1,.338,1.219c.12.012.246.012.377.017a3.266,3.266,0,0,1,.487-3.267C70.5,84.7,70.413,84.727,70.321,84.75Z"/><path d="M92.15,49.867a17.909,17.909,0,0,1-2.33,1.013c-1.368.464,1.122.641,1.792.676a81.976,81.976,0,0,0,11.446-1.3c1.665-.252,3.353-.441,5.025-.664.423-.057.921-.12,1.442-.189-.006-.017-.006-.04-.012-.057-3.977.011-7.949-.241-11.926-.16a7.72,7.72,0,0,1-3.114-.3C93.9,48.643,92.648,49.615,92.15,49.867Z"/><path d="M66.258,76.92c-.749.212-1.528.4-2.289.573a17.088,17.088,0,0,0-4.905,1.591c7.5.1,15.309.337,22.938.337,4.3,0,8.511.1,12.815.1,3.634,0,7.016-.264,10.851-.281-.023-.154-.04-.3-.052-.458-4.1.058-8.23.184-12.316.012-8.7-.366-17.312-2.318-26.012-2.673C66.968,76.423,66.727,76.8,66.258,76.92Z"/><path d="M8.878,102.829c3.045-.08,5.494-1.373,8.1-2.821a51.048,51.048,0,0,0,5.889-3.245,23.887,23.887,0,0,1,5.649-3.274c4.693-1.7,9.254-4.8,13.455-7.412.017-.011.028,0,.051-.017A9.132,9.132,0,0,1,43.2,83.044c.744-1.161,2.249-1.659,3.353-2.4a13.451,13.451,0,0,1,6.679-2.558c.023,0,.041.011.063.011a18.138,18.138,0,0,1,7.223-2.855,23.717,23.717,0,0,1,4.063-.6c1.065,0,1.872.453,2.65-.566,1.07-1.4,1.173-4.121,3.142-4.613a15.346,15.346,0,0,1,3.268-1.894c2.4-1.042,4.012-3.068,6.2-4.39a30.238,30.238,0,0,0,4.584-3.423c.928-2.855,2.936-8.075-.578-9.889a.441.441,0,0,1-.074-.063.155.155,0,0,0-.052.029,10.9,10.9,0,0,1-2.4.572c-4.945.355-10.491,4.716-14.812,6.971-4.1,2.14-8.5,3.577-12.648,5.62-4.035,1.992-7.915,4.264-11.875,6.393-4.178,2.237-8.568,4.012-12.608,6.5-3.125,1.918-6.548,3.268-9.7,5.105a.614.614,0,0,1-.206.161c-.114.051-.229.114-.344.171-.171.1-.343.2-.515.309a.512.512,0,0,1-.263.086,22.512,22.512,0,0,0-2.638,1.746,22.715,22.715,0,0,0-3.794,3.022c-.338.434-.653.892-.956,1.356a6.479,6.479,0,0,0,2.976,1.064c.509.012.938.338,1.447.344a1.468,1.468,0,0,1,.7.166.451.451,0,0,1,.263.595.583.583,0,0,1,0,.263,8.529,8.529,0,0,0-.063,1.013c-.011.132-.023.269-.023.4a1.14,1.14,0,0,0,.006.143c.006.017.006.029.011.04a.532.532,0,0,1-.063.818.571.571,0,0,1-.337.344c-1.357.549-2.988.2-4.384,0A5.361,5.361,0,0,1,8.7,91.915c-.407.79-.813,1.58-1.248,2.341-.612,1.064-1.11,2.192-1.66,3.291C4.586,99.962,5.914,102.915,8.878,102.829Zm72.3-45.035c0-.063,0-.08.006-.086a.578.578,0,0,1,.206-.767.57.57,0,0,1,.784.206,1.479,1.479,0,0,1,.149.647A.573.573,0,0,1,81.178,57.794Zm.561-5.151c.922-.549,1.774-.778,2.364.349.177.343.406.664.572,1.007a6.241,6.241,0,0,1,.63,1.78.188.188,0,0,1,0,.058,1.432,1.432,0,0,1-1.431,1.322c-.635-.081-.321-.395-.624-.9a7.088,7.088,0,0,0-.612-.858c-.309-.367-1.242-.916-1.7-1.374a.967.967,0,0,1-.252-.349C80.48,53.078,81.327,52.889,81.739,52.643Zm-2.632,5.723a.572.572,0,0,1,1.144,0v.424a.572.572,0,0,1-1.144,0Zm-.882.916a2.87,2.87,0,0,1,.092.8.573.573,0,0,1-1.145,0,1.767,1.767,0,0,0-.051-.492A.573.573,0,0,1,78.225,59.282ZM75.81,60.507a.573.573,0,0,1,1.145,0v.217a.573.573,0,0,1-1.145,0Zm-.641.789v.017c0,.258.034.619-.212.762a.578.578,0,0,1-.784-.206,1,1,0,0,1-.149-.573A.573.573,0,0,1,75.169,61.3ZM72.09,62.441a.573.573,0,0,1,1.145,0v.429a.573.573,0,0,1-1.145,0Zm-1.213.653a.57.57,0,0,1,.778.2.819.819,0,0,1,.12.247c.017.074.023.085.023.04a.569.569,0,1,1-.984.572.8.8,0,0,1-.12-.246c-.018-.075-.023-.086-.023-.04A.565.565,0,0,1,70.877,63.094Zm-2,1.281a.572.572,0,0,1,1.144,0V64.8a.572.572,0,0,1-1.144,0Zm-1.935,1a.573.573,0,0,1,1.145,0v.5a.573.573,0,0,1-1.145,0Zm-1.356.721a.572.572,0,0,1,1.144,0v.784a.572.572,0,0,1-1.144,0Zm-1.145,1.431c0-.028,0-.051,0-.074a.571.571,0,0,1-.207.778.577.577,0,0,1-.784-.206.861.861,0,0,1-.148-.5C63.265,66.779,64.41,66.785,64.438,67.523Zm-2.649-.074c.749.091.56.578.864.99a.586.586,0,0,1-.035.778.569.569,0,0,1-.8,0,1.3,1.3,0,0,1-.252-.5c-.023-.075-.04-.149-.063-.224a.517.517,0,0,1-.286-.469A.57.57,0,0,1,61.789,67.449ZM59.6,69.011a.571.571,0,0,1,1.1.309,1.226,1.226,0,0,0-.04.275.563.563,0,0,1-.034.761.642.642,0,0,1-1.128-.389A2.588,2.588,0,0,1,59.6,69.011Zm-1.4,1.574c.069.217.143.429.212.647.235.7-.87,1-1.1.3-.074-.212-.143-.429-.217-.641C56.855,70.19,57.96,69.893,58.194,70.585Zm-3.342.87a.573.573,0,0,1,1.145,0,2.33,2.33,0,0,1-.149,1.219.529.529,0,0,1-.864.1C54.669,72.468,54.858,71.838,54.852,71.455Zm-.881,1.207a2.876,2.876,0,0,1,.091.8.572.572,0,0,1-1.144,0,1.764,1.764,0,0,0-.046-.492A.57.57,0,0,1,53.971,72.662Zm-2.553.8a1.574,1.574,0,0,0,.206.715c.389.63-.6,1.2-.984.573a2.757,2.757,0,0,1-.367-1.288A.573.573,0,0,1,51.418,73.458ZM49.7,74.6a1.574,1.574,0,0,0,.206.715c.389.63-.6,1.2-.984.572a2.743,2.743,0,0,1-.366-1.287A.572.572,0,0,1,49.7,74.6Zm-1.717,1.144a1.574,1.574,0,0,0,.206.716c.389.629-.6,1.2-.984.572a2.744,2.744,0,0,1-.366-1.288C46.817,75.009,47.961,75.009,47.984,75.747Zm-1.717,1.145a1.574,1.574,0,0,0,.206.715c.39.63-.6,1.2-.984.573a2.744,2.744,0,0,1-.366-1.288C45.1,76.154,46.244,76.154,46.267,76.892ZM44.55,78.036a1.574,1.574,0,0,0,.206.716c.39.63-.6,1.2-.984.572a2.744,2.744,0,0,1-.366-1.288C43.383,77.3,44.527,77.3,44.55,78.036Zm-1.717,1.145a1.578,1.578,0,0,0,.206.716c.39.629-.6,1.2-.984.572a2.744,2.744,0,0,1-.366-1.288C41.666,78.443,42.81,78.443,42.833,79.181Zm-1.716,1.145a1.56,1.56,0,0,0,.205.715c.39.63-.6,1.2-.984.572a2.737,2.737,0,0,1-.366-1.287C39.949,79.587,41.094,79.587,41.117,80.326Zm-2.29,1.144a1.574,1.574,0,0,0,.206.716c.389.629-.6,1.2-.984.572a2.744,2.744,0,0,1-.366-1.288C37.66,80.732,38.8,80.732,38.827,81.47Zm-2.289,1.145a1.57,1.57,0,0,0,.206.715c.389.63-.6,1.2-.984.573a2.745,2.745,0,0,1-.367-1.288C35.37,81.877,36.515,81.877,36.538,82.615ZM34.249,83.76a1.561,1.561,0,0,0,.206.715c.389.63-.6,1.2-.985.572A2.755,2.755,0,0,1,33.1,83.76C33.081,83.021,34.226,83.021,34.249,83.76ZM31.959,84.9a1.574,1.574,0,0,0,.206.716c.39.629-.6,1.2-.984.572a2.744,2.744,0,0,1-.366-1.288A.572.572,0,0,1,31.959,84.9Zm-8.229-1c.2-.131.343-.32.555-.434a2.7,2.7,0,0,0,.543-.361c.189-.16.355-.343.55-.492.154-.121.343-.166.5-.287a.431.431,0,0,1,.275-.074.566.566,0,0,1,.778.344c.521,1.608,2.22,2.712,2.575,4.435a11.524,11.524,0,0,1,0,4.744.47.47,0,0,1-.544.4,3.051,3.051,0,0,0-.6.229,3.343,3.343,0,0,1-.543.269,9.527,9.527,0,0,0-1.013.658.585.585,0,0,1-.762-.83.6.6,0,0,1,0-.177,7.188,7.188,0,0,0-.441-4.424c-.418-.83-.812-2.289-1.654-2.8a.506.506,0,0,1-.2-.194A.609.609,0,0,1,23.73,83.908Zm-6.3,5.437a6.335,6.335,0,0,1,1.854-.309,1.036,1.036,0,0,1,1.191.412c.332.716,1.173,1.74.177,2.29a23.675,23.675,0,0,1-2.924.8.47.47,0,0,1-.647-.309A.544.544,0,0,1,16.959,92a3.107,3.107,0,0,1-.074-.921c0-.252-.1-.492-.092-.75A1.065,1.065,0,0,1,17.434,89.345Z"/><path d="M59.986,76.5A18.74,18.74,0,0,0,55.665,78.2a4.7,4.7,0,0,0-.853.852c.864,0,1.723.006,2.592.018a.478.478,0,0,1,.189-.332,12.047,12.047,0,0,1,4.814-2.049c.932-.223,1.854-.464,2.787-.675a2.526,2.526,0,0,0,.435-.149C64.124,75.473,61.3,76.154,59.986,76.5Z"/><path d="M56.38,88.956a3.707,3.707,0,0,0-.286,1.981c0,1.424,2.467,2.455,3.646,2.792.068.018.125.029.194.046a.547.547,0,0,1,.321-.023,4.489,4.489,0,0,0,.566.1,1.11,1.11,0,0,0,.824-.452c-.481-.08-.955-.246-1.407-.36a2.884,2.884,0,0,1-1.683-1.214,4.508,4.508,0,0,1-.435-3.874v-.006A2.58,2.58,0,0,0,56.38,88.956Z"/><path d="M15.179,90.4a.654.654,0,0,1-.183,0c-.32-.08-.612-.206-.933-.286a11.484,11.484,0,0,1-1.305-.292c-.143.727-.469,1.419-.583,2.152a9.264,9.264,0,0,0,2.97.1,2.767,2.767,0,0,1-.017-.687C15.151,91.057,15.151,90.725,15.179,90.4Z"/><path d="M51.887,79.421A13.645,13.645,0,0,0,47.7,81.253c-.9.607-1.969,1.076-2.833,1.728a6.119,6.119,0,0,0-1.809,3.675c1.58.337,5.357-.847,5.987-1.088a42.588,42.588,0,0,0,6.862-3.039c-.916-.006-1.826-.023-2.736-.051a.388.388,0,0,1-.326.183c-2.289,0-2.186-1.625-1.116-3.051C51.784,79.542,51.836,79.484,51.887,79.421Z"/></g></svg>